<svg xmlns="http://www.w3.org/2000/svg" xmlns:xlink="http://www.w3.org/1999/xlink" viewBox="0 0 2409.1 1830"><defs><linearGradient id="g" x1="1262.21" y1="1971.28" x2="2250.02" y2="596.93" gradientUnits="userSpaceOnUse"><stop offset="0" stop-color="#efeff3"/><stop offset="1" stop-color="#fff"/></linearGradient><linearGradient id="h" x1="2296.29" y1="1557.31" x2="2784.63" y2="1557.31" gradientUnits="userSpaceOnUse"><stop offset="0" stop-color="#a0c9e0"/><stop offset=".19" stop-color="#acd0e4"/><stop offset=".54" stop-color="#cbe2ee"/><stop offset=".99" stop-color="#feffff"/><stop offset="1" stop-color="#fff"/></linearGradient><linearGradient id="i" x1="2197.23" y1="1619.2" x2="2696.95" y2="1619.2" gradientUnits="userSpaceOnUse"><stop offset="0" stop-color="#0746aa"/><stop offset="1" stop-color="#003054"/></linearGradient><linearGradient id="k" x1="2411.57" y1="1538.94" x2="2482.61" y2="1538.94" gradientUnits="userSpaceOnUse"><stop offset="0" stop-color="#20659e"/><stop offset="1" stop-color="#003054"/></linearGradient><linearGradient id="l" x1="2071.46" y1="719.52" x2="2248.14" y2="1025.54" gradientTransform="matrix(.87 .5 0 1.15 298.29 -1283.22)" gradientUnits="userSpaceOnUse"><stop offset="0" stop-color="#2075a8"/><stop offset=".09" stop-color="#1d70a8"/><stop offset=".67" stop-color="#0d51aa"/><stop offset="1" stop-color="#0746aa"/></linearGradient><linearGradient id="m" x1="2153.58" y1="881" x2="2196.37" y2="806.89" gradientUnits="userSpaceOnUse"><stop offset="0"/><stop offset=".25" stop-color="#46430a"/><stop offset=".51" stop-color="#898314"/><stop offset=".74" stop-color="#bbb31b"/><stop offset=".91" stop-color="#dad01f"/><stop offset="1" stop-color="#e5db21"/></linearGradient><linearGradient id="n" x1="700.51" y1="1172.64" x2="1060.3" y2="1256.16" gradientUnits="userSpaceOnUse"><stop offset="0" stop-color="#ff0"/><stop offset=".13" stop-color="#f7f700"/><stop offset=".69" stop-color="#dad800"/><stop offset="1" stop-color="#cfcd00"/></linearGradient><linearGradient id="o" x1="1028.29" y1="1511.64" x2="2047.55" y2="1511.64" gradientUnits="userSpaceOnUse"><stop offset="0" stop-color="#95bcd1"/><stop offset=".16" stop-color="#9dc1d5"/><stop offset=".41" stop-color="#b4d0df"/><stop offset=".72" stop-color="#dae7ef"/><stop offset=".98" stop-color="#fff"/></linearGradient><linearGradient id="p" x1="3774.3" y1="276.67" x2="4486.37" y2="1510.01" gradientTransform="matrix(-1 0 0 1 5270.88 0)" gradientUnits="userSpaceOnUse"><stop offset=".3" stop-color="#13528c"/><stop offset=".34" stop-color="#13426d"/><stop offset=".41" stop-color="#122c43"/></linearGradient><linearGradient id="q" x1="846.23" y1="961.21" x2="289.99" y2="404.97" gradientUnits="userSpaceOnUse"><stop offset="0" stop-color="#135189"/><stop offset=".4" stop-color="#13528b" stop-opacity=".71"/><stop offset=".79" stop-color="#14538c" stop-opacity=".48"/><stop offset="1" stop-color="#14538d" stop-opacity=".4"/></linearGradient><linearGradient id="r" x1="1287.93" y1="1322.94" x2="2441.09" y2="1322.94" gradientUnits="userSpaceOnUse"><stop offset="0" stop-color="#fff" stop-opacity="0"/><stop offset=".06" stop-color="#ecf4f9" stop-opacity=".06"/><stop offset=".22" stop-color="#c3ddeb" stop-opacity=".19"/><stop offset=".35" stop-color="#a9cee3" stop-opacity=".27"/><stop offset=".45" stop-color="#a0c9e0" stop-opacity=".3"/><stop offset=".62" stop-color="#a2cae1" stop-opacity=".31"/><stop offset=".76" stop-color="#a8cee3" stop-opacity=".35"/><stop offset=".85" stop-color="#b0d2e5" stop-opacity=".4"/><stop offset=".88" stop-color="#bedaea" stop-opacity=".33"/><stop offset=".94" stop-color="#e2eff6" stop-opacity=".14"/><stop offset=".98" stop-color="#fff" stop-opacity="0"/></linearGradient><linearGradient id="a" x1="1700.42" y1="1621.59" x2="1762.7" y2="1513.72" gradientUnits="userSpaceOnUse"><stop offset="0" stop-color="#f6f6fb"/><stop offset="1" stop-color="#a8cadd"/></linearGradient><linearGradient id="b" x1="1742.16" y1="1585.22" x2="1688" y2="1531.06" gradientUnits="userSpaceOnUse"><stop offset="0" stop-color="#9ec6db"/><stop offset=".69" stop-color="#4184b3"/><stop offset="1" stop-color="#1565a0"/></linearGradient><linearGradient id="t" x1="2165.53" y1="1353.06" x2="2227.8" y2="1245.19" xlink:href="#a"/><linearGradient id="v" x1="2207.26" y1="1316.69" x2="2153.1" y2="1262.53" xlink:href="#b"/><linearGradient id="w" x1="1297.78" y1="1587.44" x2="1658.26" y2="1587.44" gradientUnits="userSpaceOnUse"><stop offset=".36" stop-color="#c2b91b"/><stop offset=".71" stop-color="#d3ca1e"/><stop offset="1" stop-color="#e5db21"/></linearGradient><linearGradient id="x" x1="1519.66" y1="1467.48" x2="1732.74" y2="1467.48" gradientUnits="userSpaceOnUse"><stop offset="0" stop-color="#ffee52"/><stop offset=".44" stop-color="#fbee49"/><stop offset="1" stop-color="#f2ed36"/></linearGradient><linearGradient id="y" x1="1338.15" y1="1331.6" x2="1457.24" y2="1331.6" gradientUnits="userSpaceOnUse"><stop offset="0" stop-color="#ffee52"/><stop offset=".4" stop-color="#faed49"/><stop offset="1" stop-color="#efe933"/></linearGradient><linearGradient id="A" x1="1293.9" y1="1518.84" x2="1745.74" y2="1518.84" gradientUnits="userSpaceOnUse"><stop offset="0" stop-color="#ffee52"/><stop offset="1" stop-color="#c2b91b"/></linearGradient><linearGradient id="B" x1="1810.7" y1="1479.09" x2="2180.58" y2="1005.66" gradientUnits="userSpaceOnUse"><stop offset=".95" stop-color="#20659e"/><stop offset=".97" stop-color="#1966a2"/><stop offset="1" stop-color="#0e67aa"/></linearGradient><linearGradient id="C" x1="1790.32" y1="1336.07" x2="1513.93" y2="1194.69" gradientUnits="userSpaceOnUse"><stop offset=".02" stop-color="#042c5b"/><stop offset=".08" stop-color="#20659e"/></linearGradient><linearGradient id="D" x1="1466.87" y1="1256.56" x2="1815.91" y2="1256.56" gradientUnits="userSpaceOnUse"><stop offset="0" stop-color="#0e67aa"/><stop offset=".98" stop-color="#0746aa"/></linearGradient><linearGradient id="c" x1="1500.86" y1="1218.56" x2="1807.46" y2="1218.56" gradientUnits="userSpaceOnUse"><stop offset="0"/><stop offset="1" stop-color="#0f5b93"/></linearGradient><linearGradient id="E" x1="1602.36" y1="1255.96" x2="1516.87" y2="1142.98" gradientUnits="userSpaceOnUse"><stop offset="0"/><stop offset="1" stop-color="#0b5f9e"/></linearGradient><linearGradient id="F" x1="1456.54" y1="1223.93" x2="1596.26" y2="1129.97" xlink:href="#c"/><linearGradient id="G" x1="1763.26" y1="1389.95" x2="1846.38" y2="1389.95" gradientUnits="userSpaceOnUse"><stop offset="0" stop-color="#20659e"/><stop offset="1" stop-color="#042c5b"/></linearGradient><linearGradient id="H" x1="752.84" y1="1370.42" x2="745.05" y2="1377.67" gradientUnits="userSpaceOnUse"><stop offset="0" stop-color="#042c5b"/><stop offset="1" stop-color="#0a4b7c"/></linearGradient><linearGradient id="I" x1="765.05" y1="1372.53" x2="756.39" y2="1379.45" gradientUnits="userSpaceOnUse"><stop offset="0" stop-color="#042c5b"/><stop offset=".58" stop-color="#084171"/><stop offset="1" stop-color="#0a4b7c"/></linearGradient><linearGradient id="J" x1="1490.92" y1="1646.03" x2="1481.4" y2="1651.76" gradientUnits="userSpaceOnUse"><stop offset="0" stop-color="#042c5b"/><stop offset=".34" stop-color="#053261"/><stop offset=".8" stop-color="#084272"/><stop offset="1" stop-color="#0a4b7c"/></linearGradient><linearGradient id="K" x1="1297.47" y1="1512.58" x2="1620.43" y2="1512.58" gradientUnits="userSpaceOnUse"><stop offset="0" stop-color="#8bb8d1"/><stop offset=".01" stop-color="#a0c4d9"/><stop offset=".01" stop-color="#bbd4e4"/><stop offset=".02" stop-color="#d1e1ed"/><stop offset=".03" stop-color="#e2ebf4"/><stop offset=".05" stop-color="#eef2f8"/><stop offset=".07" stop-color="#f5f6fb"/><stop offset=".12" stop-color="#f7f7fc"/><stop offset=".54" stop-color="#cee4f4"/><stop offset=".72" stop-color="#adcee3"/><stop offset=".89" stop-color="#94bed6"/><stop offset="1" stop-color="#8bb8d1"/></linearGradient><linearGradient id="d" x1="1454.49" y1="1620.52" x2="1454.49" y2="1556.12" gradientUnits="userSpaceOnUse"><stop offset="0" stop-color="#fff"/><stop offset=".09" stop-color="#f4f4f4"/><stop offset=".24" stop-color="#d7d7d7"/><stop offset=".44" stop-color="#a7a7a7"/><stop offset=".67" stop-color="#656565"/><stop offset=".94" stop-color="#121212"/><stop offset="1"/></linearGradient><linearGradient id="L" x1="1485.74" y1="1622.35" x2="1485.74" y2="1562.84" xlink:href="#d"/><linearGradient id="M" x1="1316.38" y1="1528.53" x2="1316.38" y2="1488.97" xlink:href="#d"/><linearGradient id="N" x1="1306.26" y1="1504.03" x2="1306.26" y2="1472.45" xlink:href="#d"/><linearGradient id="O" x1="1517.2" y1="1620.74" x2="1517.2" y2="1561.31" xlink:href="#d"/><linearGradient id="P" x1="1300.86" y1="1486.47" x2="1619.84" y2="1486.47" gradientUnits="userSpaceOnUse"><stop offset="0" stop-color="#f7f7fc"/><stop offset=".13" stop-color="#fdfdfe"/><stop offset=".5" stop-color="#fff"/><stop offset="1" stop-color="#f7f7fc"/></linearGradient><linearGradient id="Q" x1="2011.29" y1="976.22" x2="2068.59" y2="976.22" gradientUnits="userSpaceOnUse"><stop offset="0" stop-color="#7ca8c4"/><stop offset=".2" stop-color="#92b6ce"/><stop offset=".61" stop-color="#c9dbe7"/><stop offset=".98" stop-color="#fff"/></linearGradient><linearGradient id="R" x1="1766.45" y1="1666.77" x2="2145.94" y2="1666.77" gradientUnits="userSpaceOnUse"><stop offset="0" stop-color="#a0c9e0"/><stop offset="1" stop-color="#fff"/></linearGradient><linearGradient id="S" x1="1868.31" y1="1648.03" x2="2010.91" y2="1648.03" gradientUnits="userSpaceOnUse"><stop offset=".87" stop-color="#9ec6db"/><stop offset="1" stop-color="#8bb8d1"/></linearGradient><linearGradient id="e" x1="2030.13" y1="1611.72" x2="2116.88" y2="1611.72" gradientUnits="userSpaceOnUse"><stop offset="0" stop-color="#2075a8"/><stop offset=".94" stop-color="#0949aa"/><stop offset="1" stop-color="#0746aa"/></linearGradient><linearGradient id="T" x1="1804.18" y1="1742.9" x2="1890.88" y2="1742.9" xlink:href="#e"/><linearGradient id="U" x1="290.22" y1="1474.78" x2="481.93" y2="1474.78" gradientUnits="userSpaceOnUse"><stop offset="0" stop-color="#a0c9e0"/><stop offset=".45" stop-color="#cce2ee"/><stop offset="1" stop-color="#fff"/></linearGradient><linearGradient id="V" x1="918.25" y1="1680.3" x2="1084.64" y2="1680.3" gradientUnits="userSpaceOnUse"><stop offset="0" stop-color="#f7f7fc"/><stop offset=".16" stop-color="#f1f3fa"/><stop offset=".38" stop-color="#e0eaf3"/><stop offset=".62" stop-color="#c4d9e8"/><stop offset=".89" stop-color="#9dc3d8"/><stop offset="1" stop-color="#8bb8d1"/></linearGradient><linearGradient id="W" x1="921.95" y1="1745.76" x2="1080.94" y2="1745.76" gradientUnits="userSpaceOnUse"><stop offset="0" stop-color="#1565a0"/><stop offset=".55" stop-color="#2470a9"/><stop offset="1" stop-color="#2a75ad"/></linearGradient><linearGradient id="X" x1="936.23" y1="1778.27" x2="936.23" y2="1575.62" gradientUnits="userSpaceOnUse"><stop offset="0" stop-color="#043172"/><stop offset=".04" stop-color="#053374"/><stop offset=".65" stop-color="#0c508a"/><stop offset="1" stop-color="#0f5b93"/></linearGradient><linearGradient id="Y" x1="1747.49" y1="2191.69" x2="1883.35" y2="2191.69" gradientTransform="matrix(.87 .5 -1 .58 1620.98 -606.4)" gradientUnits="userSpaceOnUse"><stop offset="0" stop-color="#a0c9e0"/><stop offset=".04" stop-color="#a5cce2"/><stop offset=".33" stop-color="#cce2ee"/><stop offset=".59" stop-color="#e8f2f7"/><stop offset=".83" stop-color="#f9fcfd"/><stop offset="1" stop-color="#fff"/></linearGradient><linearGradient id="Z" x1="1094.79" y1="1649.7" x2="931.19" y2="1603.36" gradientUnits="userSpaceOnUse"><stop offset="0"/><stop offset=".35" stop-color="#02132d"/><stop offset=".79" stop-color="#03295f"/><stop offset="1" stop-color="#043172"/></linearGradient><linearGradient id="aa" x1="971.53" y1="1561.84" x2="1031.36" y2="1561.84" gradientUnits="userSpaceOnUse"><stop offset="0" stop-color="#1565a0"/><stop offset="1" stop-color="#0f5b93"/></linearGradient><linearGradient id="ab" x1="918.25" y1="1586.55" x2="1084.64" y2="1586.55" gradientUnits="userSpaceOnUse"><stop offset="0" stop-color="#8bb8d1"/><stop offset="1" stop-color="#a4c8dd"/></linearGradient><linearGradient id="ac" x1="2554" y1="1114.63" x2="2749.96" y2="1170.84" gradientUnits="userSpaceOnUse"><stop offset="0" stop-color="#95bcd1"/><stop offset=".58" stop-color="#d6e5ed"/><stop offset=".98" stop-color="#fff"/></linearGradient><linearGradient id="ad" x1="2530.53" y1="1139.3" x2="2399.89" y2="787.01" gradientUnits="userSpaceOnUse"><stop offset="0" stop-color="#8bb8d1"/><stop offset=".44" stop-color="#cedfec"/><stop offset=".74" stop-color="#f7f7fc"/></linearGradient><linearGradient id="ae" x1="2635.32" y1="1093.3" x2="2473.63" y2="914.48" gradientUnits="userSpaceOnUse"><stop offset="0" stop-color="#a8cadd"/><stop offset="1" stop-color="#8bb8d1"/></linearGradient><linearGradient id="af" x1="2501.44" y1="1040.75" x2="2636.54" y2="1040.75" gradientUnits="userSpaceOnUse"><stop offset="0" stop-color="#fff"/><stop offset="1" stop-color="#dce1f4"/></linearGradient><linearGradient id="f" x1="2411.21" y1="741.99" x2="2475.88" y2="854" gradientUnits="userSpaceOnUse"><stop offset=".26" stop-color="#0746aa"/><stop offset=".91" stop-color="#1d6fa8"/><stop offset="1" stop-color="#2075a8"/></linearGradient><linearGradient id="ag" x1="2536.65" y1="818.92" x2="2598.14" y2="925.41" xlink:href="#f"/><linearGradient id="ah" x1="2606.67" y1="1133.74" x2="2606.67" y2="899.24" gradientUnits="userSpaceOnUse"><stop offset="0" stop-color="#042c5b"/><stop offset=".54" stop-color="#063a84"/><stop offset="1" stop-color="#0746aa"/></linearGradient><linearGradient id="ai" x1="1434.57" y1="1837.62" x2="1630.76" y2="1837.62" gradientUnits="userSpaceOnUse"><stop offset="0" stop-color="#a8cadd"/><stop offset="1" stop-color="#fff"/></linearGradient><linearGradient id="aj" x1="1388.76" y1="1857.62" x2="1596.64" y2="1857.62" gradientUnits="userSpaceOnUse"><stop offset="0" stop-color="#fff200"/><stop offset=".13" stop-color="#d6d91b"/><stop offset=".37" stop-color="#8fae49"/><stop offset=".58" stop-color="#568c6d"/><stop offset=".77" stop-color="#2d7488"/><stop offset=".91" stop-color="#146598"/><stop offset="1" stop-color="#0b5f9e"/></linearGradient><linearGradient id="ak" x1="1803.72" y1="856.9" x2="1846.8" y2="782.3" gradientUnits="userSpaceOnUse"><stop offset="0" stop-color="#1d6291"/><stop offset=".56" stop-color="#1a6397"/><stop offset="1" stop-color="#1565a0"/></linearGradient><linearGradient id="al" x1="2327.42" y1="732.52" x2="2354.52" y2="777.84" gradientTransform="matrix(-1 0 0 1 4130.22 0)" gradientUnits="userSpaceOnUse"><stop offset="0" stop-color="#1565a0"/><stop offset="1" stop-color="#1d6291"/></linearGradient><clipPath id="s" transform="translate(-713.9 -271)"><path d="M1727.9 1616.4c-24.4 14-44.1 2.6-44.1-25.5s19.7-62.2 44.1-76.2 44-2.7 44 25.4-19.7 62.2-44 76.3Z" fill="none"/></clipPath><clipPath id="u" transform="translate(-713.9 -271)"><path d="M2193 1347.8c-24.4 14.1-44.1 2.7-44.1-25.4s19.7-62.2 44.1-76.3 44-2.6 44 25.5-19.7 62.2-44 76.2Z" fill="none"/></clipPath><clipPath id="z" transform="translate(-713.9 -271)"><path d="M1742.3 1442.8c-27.5 16-136.3 92.1-227.2 112.6-37.1 8.4-71.2 4.4-95.6-9.7l-47.3-27.3s-16.5-9.2-47.1-27.2c-16.1-9.5-25.8-43.9-9-88.4-15.4 29.6-18.6 84.4-18.6 84.4-1.9 29.2 8.8 64 27.9 75.1 30.6 17.8 46.8 26.7 46.8 26.7l47.3 27.3c51.6 29.8 153.2 15.3 216.9-21.4l16.7-9.7c6.9-41 36.4-85.4 71.2-104.4a75.3 75.3 0 0 1 19.9-7.7c0-14.3-.4-26.5-1.9-30.3Z" fill="none"/></clipPath><radialGradient id="j" cx="1847.06" cy="1069.12" r="55.86" gradientTransform="matrix(.87 .5 -.87 .5 1773.4 73.06)" gradientUnits="userSpaceOnUse"><stop offset=".3" stop-color="#bcb700"/><stop offset=".37" stop-color="#938f00"/><stop offset=".46" stop-color="#666400"/><stop offset=".56" stop-color="#424000"/><stop offset=".65" stop-color="#252400"/><stop offset=".75" stop-color="#101000"/><stop offset=".84" stop-color="#040400"/><stop offset=".93"/></radialGradient></defs><g style="isolation:isolate"><path d="M2451.5 1891.1c552.7-204.1 754.2-817.3 272-901.4-792.1-138-980.4-461.9-1303.9-511.4-571-87.4-715.4 348.1-656.8 842 73.6 620.3 810 895.2 1688.7 570.8Z" transform="translate(-713.9 -271)" fill="url(#g)"/><path d="m1780.1 1996.7 45.4 97.9a11.1 11.1 0 0 0 15.6 4.9l124.1-71.7c9.1-5.2 6.5-18.9-3.8-20.5l-169.5-26.3a11.2 11.2 0 0 0-11.8 15.7ZM876 702.4c-37.1-21.4-97.2-21.4-134.3 0s-37.1 56.1 0 77.5 97.2 21.4 134.3 0 37.1-56.1 0-77.5Zm-102.6 59.2c-19.6-11.3-19.6-29.6 0-40.9s51.3-11.3 70.9 0 19.6 29.6 0 40.9-51.3 11.3-70.9 0Z" transform="translate(-713.9 -271)" fill="#e8ecf7" style="mix-blend-mode:multiply"/><path d="M2206.8 945c6.5 3.8 17.1 3.8 23.7 0s6.5-9.9 0-13.7-17.2-3.7-23.7 0-6.5 9.9 0 13.7ZM2264.7 978.4c6.6 3.8 17.2 3.8 23.7 0s6.5-9.8 0-13.6-17.1-3.8-23.7 0-6.5 9.9 0 13.6ZM2322.6 1011.9c6.6 3.8 17.2 3.8 23.7 0s6.5-9.9 0-13.7-17.1-3.8-23.7 0-6.5 9.9 0 13.7ZM2404.2 1031.7c-6.5-3.8-17.1-3.8-23.6 0s-6.6 9.8 0 13.6 17.1 3.8 23.6 0 6.6-9.9 0-13.6ZM2148.9 978.4c6.5 3.8 17.1 3.8 23.7 0s6.5-9.8 0-13.6-17.2-3.8-23.7 0-6.6 9.9 0 13.6ZM2206.8 1011.9c6.5 3.8 17.1 3.8 23.7 0s6.5-9.9 0-13.7-17.2-3.8-23.7 0-6.5 9.9 0 13.7ZM2264.7 1045.3c6.6 3.8 17.2 3.8 23.7 0s6.5-9.9 0-13.6-17.1-3.8-23.7 0-6.5 9.8 0 13.6ZM2346.3 1065.1c-6.5-3.8-17.1-3.8-23.7 0s-6.5 9.9 0 13.7 17.2 3.7 23.7 0 6.5-9.9 0-13.7ZM2091 1011.9c6.5 3.8 17.1 3.8 23.6 0s6.6-9.9 0-13.7-17.1-3.8-23.6 0-6.6 9.9 0 13.7ZM2148.9 1045.3c6.5 3.8 17.1 3.8 23.7 0s6.5-9.9 0-13.6-17.2-3.8-23.7 0-6.6 9.8 0 13.6ZM2206.8 1078.8c6.5 3.7 17.1 3.7 23.7 0s6.5-9.9 0-13.7-17.2-3.8-23.7 0-6.5 9.9 0 13.7Z" fill="#e8ecf7"/><ellipse cx="2276.6" cy="1105.4" rx="16.7" ry="9.7" fill="#e8ecf7"/><path d="M2033.1 1045.3c6.5 3.8 17.1 3.8 23.6 0s6.6-9.9 0-13.6-17.1-3.8-23.6 0-6.6 9.8 0 13.6ZM2091 1078.8c6.5 3.7 17.1 3.7 23.6 0s6.6-9.9 0-13.7-17.1-3.8-23.6 0-6.6 9.9 0 13.7ZM2148.9 1112.2c6.5 3.8 17.1 3.8 23.7 0s6.5-9.9 0-13.7-17.2-3.7-23.7 0-6.6 9.9 0 13.7Z" fill="#e8ecf7"/><ellipse cx="2218.6" cy="1138.8" rx="16.7" ry="9.7" fill="#e8ecf7"/><path d="M1998.8 1065.1c-6.5-3.8-17.1-3.8-23.7 0s-6.5 9.9 0 13.7 17.2 3.7 23.7 0 6.5-9.9 0-13.7ZM2056.7 1098.5c-6.5-3.7-17.1-3.7-23.6 0s-6.6 9.9 0 13.7 17.1 3.8 23.6 0 6.6-9.9 0-13.7ZM2114.6 1132c-6.5-3.8-17.1-3.8-23.6 0s-6.6 9.9 0 13.6 17.1 3.8 23.6 0 6.6-9.9 0-13.6ZM2172.6 1165.4c-6.6-3.8-17.2-3.8-23.7 0s-6.6 9.9 0 13.7 17.1 3.7 23.7 0 6.5-9.9 0-13.7Z" fill="#e8ecf7"/><path d="M606.8 1434.8c-6.5-3.7-17.1-3.7-23.6 0s-6.6 9.9 0 13.7 17.1 3.8 23.6 0 6.6-9.9 0-13.7ZM548.9 1468.3c-6.5-3.8-17.1-3.8-23.7 0s-6.5 9.9 0 13.6 17.2 3.8 23.7 0 6.6-9.9 0-13.6ZM491 1501.7c-6.5-3.8-17.1-3.8-23.7 0s-6.5 9.9 0 13.7 17.2 3.7 23.7 0 6.5-9.9 0-13.7ZM433.1 1535.1c-6.6-3.7-17.1-3.7-23.7 0s-6.5 9.9 0 13.7 17.1 3.8 23.7 0 6.5-9.9 0-13.7ZM375.2 1568.6c-6.6-3.8-17.2-3.8-23.7 0s-6.5 9.9 0 13.6 17.1 3.8 23.7 0 6.5-9.8 0-13.6Z" fill="#fff"/><path d="m2439.3 550.2 52.1 30c7.9 4.6 6.9 12.6-2.3 17.9l-47.6 27.5c-9.1 5.3-23 5.8-30.9 1.2l-52-30c-8-4.6-7-12.6 2.2-17.9l47.6-27.4c9.1-5.3 23-5.9 30.9-1.3Z" transform="translate(-713.9 -271)" fill="#e8ecf7" style="mix-blend-mode:multiply"/><path d="M2708.3 1451.2c-54.1-31.2-126-45.6-196.5-43.5l-81.9.2v18.2a288.5 288.5 0 0 0-58.5 25.3c-100.6 58.6-100.1 153.4 1.2 211.9a289.8 289.8 0 0 0 57.3 24.8v19l103.9-.2c63.9-1.1 127.1-15.6 175.7-43.8 100.6-58.5 100.1-153.3-1.2-211.9Z" transform="translate(-713.9 -271)" fill="url(#h)" style="mix-blend-mode:multiply"/><path d="M2623.8 1633.2c-97.6 56.3-255.8 56.3-353.4 0-48.8-28.2-73.2-65.1-73.2-102v31.8c0 36.9 24.4 73.8 73.2 102 97.6 56.3 255.8 56.3 353.4 0 48.8-28.2 73.1-65.1 73.2-102v-31.8c-.1 36.9-24.4 73.8-73.2 102Z" transform="translate(-713.9 -271)" fill="url(#i)"/><path d="M1483.3 1260.2c0-37 24.4-73.9 73.2-102 97.6-56.4 255.8-56.4 353.4 0 48.8 28.1 73.1 65 73.2 102s-24.4 73.8-73.2 102c-97.6 56.3-255.8 56.3-353.4 0-48.8-28.2-73.2-65.1-73.2-102Z" fill="#20659e"/><path d="M1906.3 1160.2c-95.6-55.2-250.6-55.2-346.3 0s-95.6 144.7 0 199.9 250.7 55.2 346.3 0 95.7-144.7 0-199.9Zm-340 196.3c-92.1-53.2-92.1-139.5 0-192.7s241.6-53.2 333.7 0 92.2 139.5 0 192.7-241.5 53.2-333.7 0Z" fill="#f7f7fc"/><path d="M2398.7 1503.2c26.7-15.4 70-15.4 96.8 0s26.7 40.5 0 55.9-70.1 15.4-96.8 0-26.7-40.4 0-55.9Z" transform="translate(-713.9 -271)" fill="url(#j)" style="mix-blend-mode:screen"/><path fill="#1d6291" d="m1594.3 1337.6 4.9 2.8-25 16.5-8.6-4.9 28.7-14.4zM1550.9 1319.5l2.1 2.2-17.9 7-3.7-3.7 19.5-5.5zM1558.7 1336.6l1.4 1.1-8.9 4.6-2.4-1.9 9.9-3.8zM1530.4 1308l.9 1.2-10.7 3.1-1.5-2.2 11.3-2.1zM1515.9 1276l.3 1.3-11.7 1.4-.5-2.3 11.9-.4zM1516.2 1243l-.3 1.3-11.9-.4.5-2.3 11.7 1.4zM1531.3 1211.2l-.9 1.2-11.3-2.2 1.5-2.1 10.7 3.1zM1560.1 1182.6l-1.4 1.1-9.9-3.8 2.4-1.8 8.9 4.5zM1600.8 1159.4l-1.9.8-7.9-5.1 3.2-1.4 6.6 5.7zM1650.5 1143.1l-2.2.5-5.3-6.1 3.7-1 3.8 6.6zM1705.8 1134.7l-2.3.2-2.5-6.8 4.1-.3.7 6.9zM1763 1134.9l-2.4-.2.7-6.9 4.1.3-2.4 6.8zM1818.1 1143.6l-2.1-.5 3.7-6.5 3.7.9-5.3 6.1zM1867.5 1160.2l-1.9-.8 6.6-5.7 3.2 1.4-7.9 5.1zM1907.7 1183.7l-1.4-1 8.9-4.6 2.4 1.8-9.9 3.8zM1936 1212.4l-.9-1.2 10.7-3.1 1.5 2.1-11.3 2.2zM1950.5 1244.3l-.3-1.3 11.7-1.4.5 2.3-11.9.4zM1950.2 1277.3l.3-1.3 11.9.4-.5 2.3-11.7-1.4zM1935.1 1309.2l.9-1.2 11.3 2.1-1.5 2.2-10.7-3.1zM1906.3 1337.7l1.4-1.1 9.9 3.8-2.4 1.9-8.9-4.6zM1523.9 1258.9v2.5l-21.6.9v-4.3l21.6.9zM1553 1198.7l-2.1 2.1-19.5-5.4 3.7-3.7 17.9 7zM1630.4 1154.9l-3.7 1.2-12.2-10.3 6.5-2.2 9.4 11.3zM1735.3 1139.3h-4.2l-1.6-12.5h7.4l-1.6 12.5zM1839.7 1156.1l-3.7-1.2 9.5-11.3 6.4 2.2-12.2 10.3zM1915.5 1200.8l-2.1-2.1 17.9-7 3.7 3.7-19.5 5.4zM1942.5 1261.4v-2.4l21.6-1v4.3l-21.6-.9zM1913.4 1321.7l2.1-2.2 19.5 5.5-3.7 3.7-17.9-7zM1545.9 1287.1l1.7 3.8-35.9 7.2-3.1-6.8 37.3-4.2zM1547.6 1229.4l-1.7 3.9-37.3-4.3 3.1-6.7 35.9 7.1zM1599.2 1180l-4.9 2.8-28.7-14.4 8.6-5 25 16.6zM1686.6 1152l-6.7 1-12.3-20.7 11.7-1.8 7.3 21.5zM1786.5 1153l-6.7-1 7.3-21.5 11.7 1.8-12.3 20.7zM1872.1 1182.8l-4.9-2.8 25-16.6 8.6 5-28.7 14.4zM1920.5 1233.3l-1.7-3.9 35.9-7.1 3.1 6.7-37.3 4.3zM1918.8 1290.9l1.8-3.8 37.2 4.2-3.1 6.8-35.9-7.2zM1867.3 1340.4l4.8-2.8 28.7 14.4-8.6 4.9-24.9-16.5z"/><g style="mix-blend-mode:screen"><path d="M1614.7 1185.4a6.7 6.7 0 0 0-4.4-1 12.5 12.5 0 0 0-4.7 1.6l2.7.2a9.2 9.2 0 0 1 2.9 1.1 3.8 3.8 0 0 1 2.1 2.8c0 1-.8 2-2.3 2.9a9.1 9.1 0 0 1-5.2 1.2 10.1 10.1 0 0 1-5.2-1.4q-3.7-2.1-1.8-4.8a10.7 10.7 0 0 1 3.5-3 28.4 28.4 0 0 1 4.5-2 14.3 14.3 0 0 1 3.9-.6 11.6 11.6 0 0 1 6 1.4c1.7 1 2.7 2.1 3 3.5l-3.3.4a2.7 2.7 0 0 0-.5-1.3 2.9 2.9 0 0 0-1.2-1Zm-6.2 3a7.5 7.5 0 0 0-2.9-.9 6.5 6.5 0 0 0-2.9.6 2.1 2.1 0 0 0-1.1 1.7c0 .6.4 1.2 1.3 1.7a5.7 5.7 0 0 0 2.9.8 4.3 4.3 0 0 0 2.8-.6 1.9 1.9 0 0 0 1.2-1.6c0-.6-.4-1.2-1.3-1.7ZM1612.1 1197c.4-1.5 1.8-2.9 4.2-4.3a19.7 19.7 0 0 1 7.4-2.5 11.7 11.7 0 0 1 6.9 1.5c2.1 1.2 3 2.6 2.6 4s-1.9 2.9-4.3 4.3a17.4 17.4 0 0 1-7.4 2.4 11.7 11.7 0 0 1-6.9-1.5c-2.1-1.2-2.9-2.5-2.5-3.9Zm11.8-4.7a13.5 13.5 0 0 0-5 1.9 6.5 6.5 0 0 0-3.3 2.9c-.4.9 0 1.8 1.3 2.5a6.5 6.5 0 0 0 4.4.8 15.5 15.5 0 0 0 5-1.9q2.7-1.5 3.3-3c.5-.9.1-1.7-1.2-2.5a6.8 6.8 0 0 0-4.5-.7Z" fill="#8bb8d1"/><path d="m1836 1310.8 5.6 3.2-15.4 8.9-2.4-1.4 13.1-7.6-3.2-1.8ZM1846.3 1317.6a13.4 13.4 0 0 1 4.8 1.5c1.5.9 2.4 1.8 2.6 2.8a2.4 2.4 0 0 1-1.5 2.6 8.7 8.7 0 0 1-4.8.8c.5 1.4 0 2.6-1.7 3.6a8.8 8.8 0 0 1-5 1 12.4 12.4 0 0 1-5.5-1.6c-1.7-1-2.6-2.1-2.8-3.2s.4-2.1 1.8-2.8a9 9 0 0 1 6.2-1 2.6 2.6 0 0 1 1.4-2.8 7.9 7.9 0 0 1 4.5-.9Zm-10.3 7.8a3.2 3.2 0 0 0 1.5 1.6 9.2 9.2 0 0 0 2.8.9 5.4 5.4 0 0 0 2.9-.5c.8-.5 1.1-1 .9-1.7a3.1 3.1 0 0 0-1.6-1.6 6.2 6.2 0 0 0-2.8-.9 4.6 4.6 0 0 0-2.9.5c-.8.5-1.1 1-.8 1.7Zm7.2-4a2.4 2.4 0 0 0 1.3 1.6 6.6 6.6 0 0 0 2.6.7 4 4 0 0 0 2.5-.5c.6-.4.9-.8.8-1.4a2.1 2.1 0 0 0-1.3-1.5 6.6 6.6 0 0 0-2.6-.8 4.9 4.9 0 0 0-2.5.5 1.4 1.4 0 0 0-.8 1.4ZM1847.3 1332.7q.6-2.1 4.2-4.2a19.7 19.7 0 0 1 7.4-2.5 11.7 11.7 0 0 1 6.9 1.5c2.1 1.2 2.9 2.5 2.5 4s-1.8 2.8-4.2 4.2a17.6 17.6 0 0 1-7.4 2.5 11.7 11.7 0 0 1-6.9-1.5c-2.1-1.2-2.9-2.5-2.5-4Zm11.8-4.6a14.2 14.2 0 0 0-5.1 1.8 7.2 7.2 0 0 0-3.2 3c-.5.9 0 1.8 1.3 2.5a6.5 6.5 0 0 0 4.4.8 15.5 15.5 0 0 0 5-1.9q2.7-1.5 3.3-3c.5-.9.1-1.8-1.2-2.5a6.2 6.2 0 0 0-4.5-.7Z" fill="#e5db21"/><path d="m1779.7 1327.8-1.8-1 10.3-5.9 2.7 1.6-3.3 5.5 9.5-2 2.7 1.6-10.3 5.9-1.7-1 8-4.6-10.7 2-1-.5 3.6-6.2ZM1808.7 1333.8c.1.7-.4 1.5-1.7 2.2a6.5 6.5 0 0 1-3.8.9 9.5 9.5 0 0 1-4.2-1.4l-1.9-1.1-3 1.8-1.7-1 10.3-6 3.5 2.1c1.6.9 2.4 1.7 2.5 2.5Zm-5.5 1.7a4.3 4.3 0 0 0 2.2-.6c.7-.4 1-.9.8-1.3s-.7-.9-1.6-1.4l-1.8-1.1-4.1 2.4 2 1.2a5.9 5.9 0 0 0 2.5.8ZM1802.5 1341l10.2-6 1.8 1-4.5 2.6 5.1 3 4.5-2.6 1.7 1-10.3 5.9-1.7-1 4.2-2.4-5.1-2.9-4.2 2.4ZM1662.9 1336.4l-2.8 1.6 4.6 2.6-1.6.9-4.6-2.6-4.2 2.5-1.7-1 10.2-6 6.9 4-1.7.9ZM1560.2 1237.9l2.8-1.6 2.4 1.4-2.8 1.6 1.9 1.1-2.4 1.4-1.8-1.1-3.9 2.2-2.5-1.4 3.9-2.2-6.6-3.9 2.3-1.3 14.9-2 2.8 1.6-14.7 2.1ZM1564 1245c.4-1.4 1.8-2.9 4.2-4.3a17.4 17.4 0 0 1 7.4-2.4 11 11 0 0 1 6.9 1.5c2.1 1.2 2.9 2.5 2.5 3.9s-1.8 2.9-4.2 4.3a17.9 17.9 0 0 1-7.4 2.4 11 11 0 0 1-6.9-1.4c-2.1-1.2-2.9-2.6-2.5-4Zm11.8-4.7a15.2 15.2 0 0 0-5.1 1.9 7.7 7.7 0 0 0-3.2 2.9c-.5 1-.1 1.8 1.2 2.6a6.6 6.6 0 0 0 4.4.7 13.3 13.3 0 0 0 5.1-1.9 8.9 8.9 0 0 0 3.3-2.9c.5-1 0-1.8-1.3-2.6a7.1 7.1 0 0 0-4.4-.7Z" fill="#8bb8d1"/><path d="M1689.7 1158.3a11.7 11.7 0 0 1 4.9 1.5c1.5.9 2.3 1.8 2.5 2.8a2.4 2.4 0 0 1-1.4 2.6 9.7 9.7 0 0 1-4.8.8q.8 2.1-1.8 3.6a8.3 8.3 0 0 1-4.9 1 12.1 12.1 0 0 1-5.5-1.6c-1.7-1-2.7-2.1-2.8-3.2a2.7 2.7 0 0 1 1.7-2.8 9.7 9.7 0 0 1 6.2-1.1 2.5 2.5 0 0 1 1.5-2.7 7.7 7.7 0 0 1 4.4-.9Zm-10.3 7.8a4.1 4.1 0 0 0 1.6 1.6 7.1 7.1 0 0 0 2.8.8 4.3 4.3 0 0 0 2.8-.4c.9-.5 1.2-1.1.9-1.7a2.9 2.9 0 0 0-1.5-1.6 6.6 6.6 0 0 0-2.9-.9 3.9 3.9 0 0 0-2.8.5c-.8.5-1.1 1-.9 1.7Zm7.3-4a2.2 2.2 0 0 0 1.2 1.5 6.1 6.1 0 0 0 2.7.8 4.9 4.9 0 0 0 2.5-.5 1.4 1.4 0 0 0 .8-1.4 2.3 2.3 0 0 0-1.3-1.5 5.7 5.7 0 0 0-2.6-.8 4.7 4.7 0 0 0-2.5.5 1.3 1.3 0 0 0-.8 1.4ZM1690.8 1173.4q.6-2.1 4.2-4.2a17.6 17.6 0 0 1 7.4-2.5 11.7 11.7 0 0 1 6.9 1.5c2.1 1.2 2.9 2.5 2.5 4s-1.8 2.8-4.2 4.2a19.7 19.7 0 0 1-7.4 2.5 11.7 11.7 0 0 1-6.9-1.5c-2.1-1.2-2.9-2.5-2.5-4Zm11.8-4.7a15.2 15.2 0 0 0-5.1 1.9 7.7 7.7 0 0 0-3.2 2.9c-.5 1-.1 1.9 1.2 2.6a6 6 0 0 0 4.4.7 13.3 13.3 0 0 0 5.1-1.9 8.1 8.1 0 0 0 3.3-2.9c.5-.9 0-1.8-1.3-2.5a6.5 6.5 0 0 0-4.4-.8Z" fill="#efe933"/><path d="m1878.1 1266.1 5.6 3.2-15.4 8.9-2.5-1.4 13.1-7.6-3.1-1.8ZM1891.6 1276.3a7.5 7.5 0 0 0-4.4-1 13 13 0 0 0-4.8 1.6l2.8.2a8.6 8.6 0 0 1 2.8 1.1c1.4.8 2.1 1.7 2.1 2.8s-.7 2-2.2 2.9a9.3 9.3 0 0 1-5.2 1.2 9.9 9.9 0 0 1-5.2-1.4q-3.7-2.1-1.8-4.8a10.7 10.7 0 0 1 3.5-3 24.1 24.1 0 0 1 4.4-2 14.3 14.3 0 0 1 3.9-.6 11.7 11.7 0 0 1 6.1 1.4 5.7 5.7 0 0 1 2.9 3.5l-3.2.4a2.2 2.2 0 0 0-.6-1.3 3.5 3.5 0 0 0-1.1-1Zm-6.2 3a7.5 7.5 0 0 0-3-.9 6.1 6.1 0 0 0-2.8.6c-.8.5-1.2 1-1.2 1.7s.5 1.2 1.4 1.7a5.5 5.5 0 0 0 2.9.8 4.3 4.3 0 0 0 2.8-.6 1.9 1.9 0 0 0 1.2-1.6c0-.6-.4-1.2-1.3-1.7ZM1889 1287.9c.4-1.5 1.8-2.9 4.2-4.3a19.1 19.1 0 0 1 7.4-2.5 11.7 11.7 0 0 1 6.9 1.5c2.1 1.2 2.9 2.6 2.5 4s-1.8 2.9-4.2 4.3a17.9 17.9 0 0 1-7.4 2.4 11.7 11.7 0 0 1-6.9-1.5c-2.1-1.2-3-2.5-2.5-3.9Zm11.8-4.7a14.9 14.9 0 0 0-5.1 1.8 7.2 7.2 0 0 0-3.2 3c-.5.9-.1 1.8 1.2 2.5a6.6 6.6 0 0 0 4.4.8 15.2 15.2 0 0 0 5.1-1.9 8.2 8.2 0 0 0 3.3-3c.4-.9 0-1.8-1.3-2.5a6.5 6.5 0 0 0-4.4-.7Z" fill="#c2b91b"/><path d="M1559.3 1279.1a5.3 5.3 0 0 0 2.5-.7 1.4 1.4 0 0 0 .9-1.3 2 2 0 0 0-1.2-1.4 8.7 8.7 0 0 0-5.1-.7l-.8-1.9a16.9 16.9 0 0 1 4.5 0 10.2 10.2 0 0 1 3.9 1.4 3.9 3.9 0 0 1 2.2 2.6c.1 1-.5 2-1.9 2.8a8.2 8.2 0 0 1-2.9.9 30.7 30.7 0 0 1-5 .3h-7.3l6.9 4-2.4 1.4-10.6-6 2.2-1.3h9.4ZM1559.6 1287.8q.6-2.1 4.2-4.2a18.1 18.1 0 0 1 7.4-2.5 11.7 11.7 0 0 1 6.9 1.5c2.1 1.2 2.9 2.5 2.5 4s-1.8 2.8-4.2 4.2a19.1 19.1 0 0 1-7.4 2.5 11.7 11.7 0 0 1-6.9-1.5c-2.1-1.2-2.9-2.5-2.5-4Zm11.8-4.7a16.9 16.9 0 0 0-5.1 1.9 7.7 7.7 0 0 0-3.2 2.9c-.5 1 0 1.9 1.3 2.6a6 6 0 0 0 4.4.7 13.5 13.5 0 0 0 5-1.9c1.8-1 2.9-1.9 3.3-2.9s.1-1.8-1.2-2.5a6.8 6.8 0 0 0-4.5-.8Z" fill="#8bb8d1"/><path d="m1760.8 1148.3 5.6 3.2-15.4 8.9-2.5-1.4 13.1-7.6-3.1-1.8ZM1758 1162.1c.4-1.4 1.8-2.8 4.3-4.2a18.7 18.7 0 0 1 7.3-2.5 11.7 11.7 0 0 1 6.9 1.5c2.1 1.2 3 2.5 2.6 4s-1.9 2.8-4.3 4.2a19.1 19.1 0 0 1-7.4 2.5 11.6 11.6 0 0 1-6.8-1.5c-2.1-1.2-3-2.5-2.6-4Zm11.8-4.6a13.2 13.2 0 0 0-5 1.8 7.6 7.6 0 0 0-3.3 3c-.4.9 0 1.8 1.3 2.5a6.5 6.5 0 0 0 4.4.8 16.9 16.9 0 0 0 5.1-1.9 7.2 7.2 0 0 0 3.2-3c.5-.9.1-1.8-1.2-2.5a6.2 6.2 0 0 0-4.5-.7ZM1773.2 1170.9c.4-1.4 1.8-2.9 4.2-4.3a17.4 17.4 0 0 1 7.4-2.4 10.4 10.4 0 0 1 6.9 1.5c2.1 1.2 2.9 2.5 2.5 3.9s-1.8 2.9-4.2 4.3a17.4 17.4 0 0 1-7.4 2.4 11 11 0 0 1-6.9-1.4c-2.1-1.2-2.9-2.6-2.5-4Zm11.8-4.7a16 16 0 0 0-5.1 1.9 7.7 7.7 0 0 0-3.2 2.9c-.5 1 0 1.8 1.3 2.6a6.4 6.4 0 0 0 4.4.7 15.5 15.5 0 0 0 5-1.9 7.5 7.5 0 0 0 3.3-2.9c.5-1 .1-1.8-1.2-2.6a6.8 6.8 0 0 0-4.5-.7Z" fill="#ffee52"/><path d="m1887.6 1221.4 5.6 3.3-15.4 8.9-2.5-1.5 13.1-7.5-3.2-1.8ZM1893.6 1235.5l2.8-1.6 2.5 1.4-2.8 1.6 1.8 1.1-2.4 1.4-1.8-1.1-3.9 2.2-2.5-1.4 3.9-2.2-6.6-3.9 2.3-1.3 14.9-2 2.9 1.6-14.8 2.1ZM1897.4 1242.6c.4-1.4 1.8-2.9 4.2-4.3a17.9 17.9 0 0 1 7.4-2.4 11.7 11.7 0 0 1 6.9 1.5c2.1 1.2 2.9 2.5 2.5 3.9s-1.8 2.9-4.2 4.3a19.1 19.1 0 0 1-7.4 2.5 11.7 11.7 0 0 1-6.9-1.5c-2.1-1.2-2.9-2.6-2.5-4Zm11.8-4.7a16.9 16.9 0 0 0-5.1 1.9 7.7 7.7 0 0 0-3.2 2.9c-.5 1 0 1.8 1.3 2.6a6.5 6.5 0 0 0 4.4.7 13.5 13.5 0 0 0 5-1.9 7.5 7.5 0 0 0 3.3-2.9c.5-1 .1-1.8-1.2-2.6a7.4 7.4 0 0 0-4.5-.7Z" fill="#f2ed36"/><path d="M1599.9 1331.5c.4-1.4 1.8-2.8 4.2-4.3a17.4 17.4 0 0 1 7.4-2.4 11.7 11.7 0 0 1 6.9 1.5c2.1 1.2 2.9 2.5 2.5 3.9s-1.8 2.9-4.2 4.3a19.1 19.1 0 0 1-7.4 2.5 11.7 11.7 0 0 1-6.9-1.5c-2.1-1.2-2.9-2.6-2.5-4Zm11.8-4.7a16.9 16.9 0 0 0-5.1 1.9 7.7 7.7 0 0 0-3.2 2.9c-.5 1 0 1.9 1.3 2.6a6.4 6.4 0 0 0 4.4.7 13.5 13.5 0 0 0 5-1.9 7.5 7.5 0 0 0 3.3-2.9c.5-.9.1-1.8-1.2-2.5a6.8 6.8 0 0 0-4.5-.8Z" fill="#8bb8d1"/><path d="m1848.1 1176.1 5.6 3.2-15.4 8.9-2.5-1.4 13.1-7.6-3.1-1.8ZM1858 1188.8a5.7 5.7 0 0 0 2.5-.7c.6-.4.9-.8.9-1.3a2.2 2.2 0 0 0-1.2-1.4 7.4 7.4 0 0 0-5.1-.7l-.9-1.9a24 24 0 0 1 4.6-.1 12.2 12.2 0 0 1 3.9 1.4 4 4 0 0 1 2.2 2.7c.1 1-.5 1.9-1.9 2.7a8.3 8.3 0 0 1-2.9 1 31.3 31.3 0 0 1-5.1.3h-7.3l7 4.1-2.5 1.4-10.5-6.1 2.2-1.3h14.1ZM1858.3 1197.5c.4-1.5 1.8-2.9 4.2-4.3a17.4 17.4 0 0 1 7.4-2.4 11 11 0 0 1 6.9 1.4c2.1 1.2 2.9 2.6 2.5 4s-1.8 2.9-4.2 4.3a17.9 17.9 0 0 1-7.4 2.4 11 11 0 0 1-6.9-1.4c-2.1-1.3-2.9-2.6-2.5-4Zm11.8-4.7a15.2 15.2 0 0 0-5.1 1.9c-1.7 1-2.8 1.9-3.2 2.9s-.1 1.8 1.2 2.6a6.6 6.6 0 0 0 4.4.7 15.2 15.2 0 0 0 5.1-1.9 8.1 8.1 0 0 0 3.3-2.9c.5-1 0-1.8-1.3-2.6a6.4 6.4 0 0 0-4.4-.7Z" fill="#fff200"/></g><path d="M1775.8 1355.3c-44 6.5-91.5 2.8-131.3-11.3l-24.3 23c50.7 17.9 111.3 22.6 167.2 14.3Z" fill="#042c5b"/><path d="M1676.8 1369.4a284.9 284.9 0 0 1-46.5-11.9l-5.4 5.1a301.5 301.5 0 0 0 48.9 12.6Z" fill="#1d6291"/><path d="m2392.9 1630.3-5.7 12.5 5.2.8 6.9-12.2Z" transform="translate(-713.9 -271)" fill="#fff200" style="mix-blend-mode:screen"/><path d="M1697.7 1255.1c0-5.2 3.4-10.5 10.4-14.5s16-6 25.1-6 18.2 2 25.1 6 10.4 9.3 10.4 14.5-3.5 10.5-10.4 14.5-16 6-25.1 6-18.2-2-25.1-6-10.4-9.2-10.4-14.5Z" fill="#043172"/><path d="M2472.2 1540.6c-6.9 4-16 6-25.1 6s-18.2-2-25.1-6-10.4-9.2-10.4-14.4v5c0 5.2 3.4 10.5 10.4 14.5s16 6 25.1 6 18.2-2 25.1-6 10.3-9.2 10.4-14.4v-5c-.1 5.2-3.5 10.4-10.4 14.3Z" transform="translate(-713.9 -271)" fill="url(#k)"/><path fill="#f2ed36" style="mix-blend-mode:screen" d="m1761.2 1261.8-12.9-11.5-211.4-44.5-3.3 4.6 204.5 54.3 23.1-2.9z"/><path d="M2335.2 994c0 14.1-10 19.9-22.2 12.8l-288.6-166.6c-12.3-7-22.3-24.4-22.3-38.5V614.4c0-14.1 10-19.9 22.3-12.9L2313 768.2c12.2 7 22.2 24.4 22.2 38.5Z" transform="translate(-713.9 -271)" fill="url(#l)"/><path fill="#fff" d="m1306 521.2-2.5-1.4V374l2.5 1.4v145.8zM1348.5 545.8l-2.4-1.4V398.6l2.4 1.4v145.8zM1391.1 570.4l-2.4-1.4V423.2l2.4 1.4v145.8zM1433.7 595l-2.5-1.4V447.7l2.5 1.5V595zM1476.3 619.6l-2.5-1.5V472.3l2.5 1.5v145.8zM1518.9 644.1l-2.5-1.4V496.9l2.5 1.4v145.8zM1561.4 668.7l-2.4-1.4V521.5l2.4 1.4v145.8zM1604 693.3l-2.4-1.4V546.1l2.4 1.4v145.8zM1353.9 574.3l-13.2-7.7v-4.8l13.2 7.7v4.8zM1311.4 549.7l-13.3-7.7v-4.8l13.3 7.7v4.8zM1396.5 598.8l-13.3-7.6v-4.8l13.3 7.7v4.7zM1439.1 623.4l-13.3-7.7v-4.8l13.3 7.7v4.8zM1481.7 647.9l-13.3-7.6v-4.8l13.3 7.7v4.7zM1524.3 672.5l-13.3-7.7V660l13.3 7.7v4.8zM1566.8 697l-13.2-7.6v-4.8l13.2 7.7v4.7zM1609.4 721.6l-13.3-7.7v-4.7l13.3 7.6v4.8z"/><path d="M2316.7 910.3c-2.3 0-4.2-.8-8-3-15.8-9.1-32.2-54.2-63.3-72.1s-46.4 25.2-68.6 12.3-21.8-44.1-39.9-54.6-16.2 4.6-32.9-5.1-16.2-39.3-44.5-55.7c-17.5-10.1-32.2 5.8-40.9 6v65l298.1 172.1Z" transform="translate(-713.9 -271)" fill="url(#m)" style="mix-blend-mode:screen"/><path d="M1529 632.2a25.4 25.4 0 0 1-12.8-3.7c-15.1-8.7-20.7-25.5-25.6-40.3-5.4-16.5-10.1-30.8-26.1-32.3s-19.5-20.6-23.6-39.2c-2.9-13.6-6-27.6-13.4-31.9s-13-1.9-18.3 1.7-10.9 7.1-19.8 1.9-11.7-12.6-16.4-22c-5.9-11.8-12.5-25.2-28.2-34.2-9.9-5.7-19.4 6.6-27 16.6-5.1 6.6-9.1 11.8-13 11.9v-3c2.5 0 6.7-5.5 10.7-10.7 8.4-10.9 18.8-24.4 30.9-17.4 16.4 9.5 23.3 23.3 29.3 35.5 4.5 9 8.4 16.8 15.2 20.7s11.7 1.5 16.7-1.8 11.5-7.6 21.5-1.8 11.6 19 14.8 33.9c3.9 17.5 7.8 35.7 21 36.9 17.9 1.6 23.1 17.5 28.7 34.3 4.9 15 10 30.5 24.2 38.7 17 9.8 30.5-4.7 41.4-16.3 6.2-6.7 11.6-12.5 16.7-12.6a7.5 7.5 0 0 1 5.3 2.3c5.4 5.4 12.9 1 17.4-1.6 1.9-1.1 3-1.7 3.9-1.7v2.9l-2.5 1.4c-4.9 2.8-13.9 8.2-21 1.1a3.9 3.9 0 0 0-3.2-1.4c-3.8 0-9 5.6-14.6 11.6-8.3 9-19.1 20.5-32.2 20.5Z" fill="#fff200"/><path d="M2064.8 718.7v-93.8l-40.4-23.4c-12.3-7-22.3-1.2-22.3 12.9v68.2Z" transform="translate(-713.9 -271)" fill="#95bcd1" style="mix-blend-mode:multiply"/><path d="m1026.3 1016.4-288.6 166.7c-12.3 7-22.3 24.4-22.3 38.5v178.6c0 14.2 10 20 22.3 12.9l288.6-166.6c12.2-7.1 22.2-24.4 22.2-38.6v-178.6c0-14.1-10-19.9-22.2-12.9Z" transform="translate(-713.9 -271)" stroke="#101416" stroke-miterlimit="10" opacity=".58" fill="url(#n)" style="mix-blend-mode:multiply"/><path d="M794.7 1262.3v-50.6c-24.2 14-43.8 47.9-43.8 75.9s19.6 39.2 43.8 25.3 43.8-48 43.8-75.9a44.5 44.5 0 0 0-2.2-14.4Z" transform="translate(-713.9 -271)" fill="#dae0f5" stroke="#fff" style="mix-blend-mode:multiply"/><path d="M122.4 951.6c-5.7-17-22.2-22.1-41.6-10.9v50.6Z" fill="#fff" stroke="#fff" stroke-miterlimit="10"/><path fill="#dae0f5" stroke="#fff" style="mix-blend-mode:multiply" d="m154 907.2 72.9-42.1v-11.2L154 896v11.2zM154 936.9l72.9-42v-11.3L154 925.7v11.2z"/><path fill="#fff" stroke="#fff" stroke-miterlimit="10" d="m168.4 988.2-9.8 5.6v-11.2l9.8-5.7v11.3zM187.8 976.9l-9.7 5.7v-11.3l9.7-5.6v11.2zM207.3 965.7l-9.7 5.6v-11.2l9.7-5.6v11.2z"/><path fill="#dce1f4" style="mix-blend-mode:multiply" d="m272.2 998.7-27.9 16.1V784.7l27.9-16v230z"/><path d="M2047.5 1361.4v300.5h-959.9c-52.8 0-74.5-12.5-48-27.8l248.6-143.5 175.6-101.4c26.5-15.3 91.4-27.8 144.2-27.8Z" transform="translate(-713.9 -271)" fill="url(#o)" style="mix-blend-mode:multiply"/><path d="M827.1 1052c0 30.5-21.6 68-48 83.2l-424.3 245c-26.4 15.2-48.1 2.8-48.1-27.8V357.2c0-30.5 21.7-68 48.1-83.2L779.1 29c26.4-15.2 48-2.7 48 27.8Z" fill="#e8ecf7"/><path d="M1493.4 274.8c-8.8-5.7-21.2-5.4-35 2.6l-424.3 245c-26.4 15.3-48.1 52.7-48.1 83.2v995.3c0 15.3 5.5 26.1 14.3 31.1l34.2 22.3c-8.6-5.1-13.9-15.8-13.9-30.9V628.2c0-30.5 21.7-68 48.1-83.2L1493 300c13.7-7.9 26.1-8.3 34.9-2.6h.1Zm-458.5 1379.7Z" transform="translate(-713.9 -271)" fill="url(#p)"/><path fill="url(#q)" d="M797 87.8v922.7l-460.1 265.6V358L797 87.8z"/><path d="M532.5 1220.1c0 21.9 15.4 30.8 34.4 19.8s34.5-37.6 34.5-59.6-15.5-30.8-34.5-19.9-34.4 37.7-34.4 59.7Zm10.1-5.8c0-15.6 10.9-34.4 24.3-42.2s24.4-1.5 24.4 14-10.9 34.4-24.4 42.2-24.3 1.5-24.3-14Z" fill="#84b4ce"/><path fill="#fff" d="m549.1 825.6-9.7 5.7V820l9.7-5.6v11.2zM568.6 814.4l-9.8 5.6v-11.2l9.8-5.6v11.2zM588.1 803.2l-9.8 5.6v-11.3l9.8-5.6v11.3zM509.6 728.1c0-36.5 25.7-81 57.3-99.2s57.3-3.5 57.3 33.1-25.6 80.9-57.3 99.2-57.3 3.5-57.3-33.1Z"/><path fill="#0f5b93" d="m555.5 740.5-33.6-19.4 8.5-14.7 25.1 14.5L620 609.2l8.5 4.9-73 126.4z"/><path fill="#122f48" d="m778.9 136.2-51.4 29.7V153l51.4-29.7v12.9zM778.9 162.7l-51.4 29.7v-12.9l51.4-29.7v12.9z"/><path d="M1338.1 1182.8a46.4 46.4 0 0 0-5.2-10.7c-7.2-10.3-22.2-14.2-48.3.9s-22.8 22.5-33.2 37.3a72.4 72.4 0 0 0-30.3 33.1c-.8 1.6-1.3 4.6-1.5 7.9-2.6 1.4-1.4 17 2.6 14.7l19.4-11.2c1.7 4.6 5.7 6.3 9.9 3.9s7.4-8.3 8.1-14.3l50.1-28.9c1.7 4.6 5.7 6.4 9.9 3.9s7.4-8.3 8.1-14.3l12.1-7c4-2.3.9-16.8-1.7-15.3ZM1257.7 792.1l19.9 11.5 19.9-34.5c11.1-19.1 11.1-39.7 0-46.1s-28.8 4-39.8 23.1-11 39.6 0 46Zm6.6-26.9c0-8.4 6-18.8 13.3-23s13.3-.8 13.3 7.7-6 18.8-13.3 23-13.3.8-13.3-7.7Z" transform="translate(-713.9 -271)" fill="#a4c8dd" style="mix-blend-mode:multiply"/><path d="M2397.5 1288.4c-37.9 40.7-194.1 140.6-350 232.5-92.6 54.5-185.1 106.2-252.6 141h-444.5a76.4 76.4 0 0 1-7.6-10.6c-31.4-53.9-57.5-107.2-54.6-160.7 1.8-34.6 15.8-69.3 48.3-104.3 26.9-28.8 359.1-198.6 394.2-224.7l-11-26.4 152.8-64.3c130.6-58.1 189.7-89.9 309.7-86.7 110.1 3 196.8 29.9 222 83.5 26.2 56 71.1 137.1-6.7 220.7Z" transform="translate(-713.9 -271)" opacity=".47" fill="url(#r)" style="mix-blend-mode:multiply"/><path fill="#003054" d="m1072.9 1287.1-99.1-57.2 10.6-74.9 119.8 69.2-31.3 62.9zM1538 1018.6l-99.1-57.2 10.6-74.9 119.8 69.2-31.3 62.9z"/><path d="M762.5 938c-16.8-10.2-22.1-21.4-18.6-24.1a10.3 10.3 0 0 0-3.5 2.6c-7.6 8.4 9 34.1 31 45 16.4 8.1 29.4-5.7 29-19.1-4.9 3-21.1 5.8-37.9-4.4Z" fill="#042c5b"/><path d="M743.9 913.9c-3.5 2.7 1.8 13.9 18.6 24.1s33 7.4 37.9 4.4a19 19 0 0 0-5.5-12.8c-14.2-14-39.2-21.9-51-15.7Z" fill="#1565a0"/><path d="M1014 1234.7c-28.7 16.5-51.9 56.7-51.9 89.7s23.2 46.5 51.9 30 51.8-56.8 51.8-89.8-23.2-46.5-51.8-29.9Zm0 110.7c-24.4 14-44.1 2.6-44.1-25.5s19.7-62.2 44.1-76.2 44-2.7 44 25.4-19.7 62.2-44 76.3Z" fill="#84b4ce"/><path d="M1727.9 1616.4c24.3-14.1 44-48.2 44-76.3s-19.7-39.5-44-25.4a25.6 25.6 0 0 0-3.5 2.2c-2.9 25.8-19.4 54.4-40.4 69.8-.1 1.4-.2 2.8-.2 4.2 0 28.1 19.7 39.5 44.1 25.5Z" transform="translate(-713.9 -271)" fill="url(#a)"/><path d="M1014 1223.6c-34 19.6-61.5 67.2-61.5 106.4s27.5 55 61.5 35.4 61.4-67.2 61.4-106.3-27.5-55.1-61.4-35.5Zm0 130.8c-28.7 16.5-51.9 3.1-51.9-30s23.2-73.2 51.9-89.7 51.8-3.2 51.8 29.9-23.2 73.2-51.8 89.8Z" fill="#20659e"/><path d="m1055.6 1218.4-47-27.2c-11.2-7.4-27.2-6.9-45 3.3-33.9 19.6-61.4 67.3-61.4 106.4 0 19.9 7.1 33.8 18.5 40.1l49.4 28.5c-10.9-6.5-17.6-20.2-17.6-39.5 0-39.2 27.5-86.8 61.5-106.4 16-9.3 30.7-10.6 41.6-5.2Z" fill="#042c5b"/><g clip-path="url(#s)"><path d="M1671 1583.6c0-28.1 19.8-62.3 44.1-76.3s44-2.7 44 25.4-19.7 62.2-44 76.3-44.1 2.6-44.1-25.4Z" transform="translate(-713.9 -271)" fill="url(#b)"/><path d="M1004.1 1277a3.8 3.8 0 0 1 2.4.3c6.7-16.5 14.2-47-5.3-35.8-2.5 1.5 8.2 11 2.9 35.5ZM1007.4 1277.9a4.4 4.4 0 0 1 1.3 2.1c11.3-13.6 29.1-42.2 12.2-43.7-2.1-.2.3 18.1-13.5 41.6ZM1009 1281.2a9.8 9.8 0 0 1-.1 3.4c12.9-7 36.2-26.1 26.5-40-1.3-1.7-7.7 20.5-26.4 36.6ZM1008.6 1286.2a17.3 17.3 0 0 1-1.6 3.7c11 1.5 33.7-3 33.7-25.6 0-2.8-13.6 17.4-32.1 21.9ZM1006.1 1291.4a19.9 19.9 0 0 1-2.5 3.1c6.1 9.5 22 20.8 31.8-4.3 1.2-3.2-15.9 9.5-29.3 1.2ZM1002.4 1295.5a11.5 11.5 0 0 1-2.9 1.5c-.4 15.1 4.5 39.2 21.4 18.2 2.1-2.6-13.9-.8-18.5-19.7ZM998.3 1297.3a5.2 5.2 0 0 1-2.5-.3c-6.7 16.5-14.1 47 5.4 35.7 2.4-1.4-8.2-10.9-2.9-35.4ZM995 1296.4a4.9 4.9 0 0 1-1.4-2.2c-11.3 13.7-29.1 42.3-12.2 43.8 2.2.2-.3-18.1 13.6-41.6ZM993.3 1293a10 10 0 0 1 .2-3.4c-12.9 7.1-36.3 26.2-26.5 40.1 1.2 1.7 7.7-20.5 26.3-36.7ZM993.8 1288.1a29.9 29.9 0 0 1 1.5-3.8c-10.9-1.4-33.6 3.1-33.6 25.6 0 2.9 13.6-17.3 32.1-21.8ZM996.2 1282.9a20.3 20.3 0 0 1 2.6-3.1c-6.2-9.5-22.1-20.9-31.8 4.3-1.3 3.2 15.9-9.5 29.2-1.2ZM1000 1278.8a10.5 10.5 0 0 1 2.9-1.6c.3-15-4.6-39.2-21.5-18.2-2.1 2.7 13.9.9 18.6 19.8Z" fill="#042c5b"/></g><path d="M1479.1 966.1c-28.7 16.6-51.9 56.8-51.9 89.8s23.2 46.5 51.9 29.9 51.8-56.7 51.8-89.7-23.2-46.5-51.8-30Zm0 110.7c-24.4 14.1-44.1 2.7-44.1-25.4s19.7-62.2 44.1-76.3 44-2.6 44 25.5-19.7 62.2-44 76.2Z" fill="#84b4ce"/><path d="M2193 1347.8c24.3-14 44-48.1 44-76.2s-19.7-39.5-44-25.5l-3.5 2.2c-2.9 25.9-19.4 54.5-40.4 69.8-.1 1.5-.2 2.9-.2 4.3 0 28.1 19.7 39.5 44.1 25.4Z" transform="translate(-713.9 -271)" fill="url(#t)"/><path d="M1479.1 955.1c-34 19.5-61.5 67.2-61.5 106.4s27.5 55 61.5 35.4 61.4-67.2 61.4-106.4-27.5-55-61.4-35.4Zm0 130.7c-28.7 16.6-51.9 3.2-51.9-29.9s23.2-73.2 51.9-89.8 51.8-3.1 51.8 30-23.2 73.2-51.8 89.7Z" fill="#20659e"/><path d="m1520.7 949.8-47-27.1c-11.2-7.5-27.2-7-45 3.3-33.9 19.6-61.4 67.2-61.4 106.4 0 19.9 7.1 33.7 18.5 40l49.4 28.6c-10.9-6.6-17.6-20.2-17.6-39.5 0-39.2 27.5-86.9 61.5-106.4 16-9.3 30.7-10.6 41.6-5.3Z" fill="#042c5b"/><g clip-path="url(#u)"><path d="M2136.1 1315c0-28 19.8-62.2 44.1-76.2s44-2.7 44 25.4-19.7 62.2-44 76.3-44.1 2.6-44.1-25.5Z" transform="translate(-713.9 -271)" fill="url(#v)"/><path d="M1469.2 1008.4a3.8 3.8 0 0 1 2.4.4c6.7-16.6 14.2-47-5.3-35.8-2.5 1.4 8.2 11 2.9 35.4ZM1472.5 1009.3a5.4 5.4 0 0 1 1.3 2.2c11.3-13.6 29.1-42.3 12.2-43.8-2.1-.2.3 18.2-13.5 41.6ZM1474.1 1012.7a9.8 9.8 0 0 1-.1 3.4c12.9-7 36.2-26.2 26.5-40-1.3-1.8-7.7 20.5-26.4 36.6ZM1473.7 1017.7a19.7 19.7 0 0 1-1.6 3.7c11 1.4 33.7-3.1 33.7-25.6 0-2.8-13.6 17.3-32.1 21.9ZM1471.2 1022.9a14.8 14.8 0 0 1-2.5 3c6.1 9.6 22 20.9 31.8-4.2 1.2-3.2-15.9 9.5-29.3 1.2ZM1467.5 1027a11.5 11.5 0 0 1-2.9 1.5c-.4 15.1 4.5 39.2 21.4 18.2 2.2-2.7-13.9-.8-18.5-19.7ZM1463.4 1028.8a4.3 4.3 0 0 1-2.5-.4c-6.7 16.6-14.1 47.1 5.4 35.8 2.4-1.4-8.2-11-2.9-35.4ZM1460.1 1027.9a4.9 4.9 0 0 1-1.4-2.2c-11.3 13.7-29.1 42.3-12.2 43.8 2.2.2-.3-18.2 13.6-41.6ZM1458.4 1024.5a10 10 0 0 1 .2-3.4c-12.9 7-36.3 26.2-26.5 40 1.2 1.8 7.7-20.4 26.3-36.6ZM1458.9 1019.5a28.7 28.7 0 0 1 1.5-3.7c-10.9-1.4-33.6 3.1-33.6 25.6 0 2.8 13.6-17.3 32.1-21.9ZM1461.3 1014.3a19.3 19.3 0 0 1 2.6-3c-6.2-9.5-22.1-20.9-31.8 4.3-1.2 3.1 15.9-9.6 29.2-1.3ZM1465.1 1010.3a8.4 8.4 0 0 1 2.9-1.6c.3-15.1-4.6-39.2-21.5-18.2-2.1 2.7 14 .9 18.6 19.8Z" fill="#042c5b"/></g><path d="m1653.1 1585.2-16.7 9.7c-63.7 36.7-165.3 51.2-216.9 21.4l-47.3-27.3s-16.2-8.9-46.8-26.7c-15.5-9-25.4-33.6-27.6-58.1 2 26 12.5 78.1 34.5 100l87 50.3c99 37.1 200.6-.1 217.1-9.6l21.9-12.6c-4.5-8.3-7-19-6.7-31.9a113.3 113.3 0 0 1 1.5-15.2Z" transform="translate(-713.9 -271)" fill="url(#w)"/><path d="M1028.4 1171.8v30.8c25-6.2 44.1 5.9 49.5 31.6l326.4-188.5c6.9-41 36.4-85.4 71.2-104.5s60.9-7.1 67.5 24.4l38.8-22.4v-90.8Z" fill="#c2b91b"/><path d="M1581.8 936.8s-1.4 7.2-11.5 13.1l-27.3 15.7a75.5 75.5 0 0 1 1.5 17.6c-.2 11.4-2.6 23.4-6.6 35.4l12.6-7.3c15.3-8.8 31.3-51.2 31.3-68.1ZM1409.5 1092.7c-4.5-8.2-7-18.9-6.7-31.8a113.3 113.3 0 0 1 1.5-15.2l-326.4 188.5a74.2 74.2 0 0 1 1.5 17.5 118.7 118.7 0 0 1-6.6 35.4Z" fill="#e5db21"/><path d="M1556.4 812.4c5.7 5.4 6.1 20.9-7 28.4l-530.6 306.4 9.6 24.6 553.4-319.4s0-19.2-25.4-40ZM1028.4 1171.8c-27.5 16-136.3 92.1-227.2 112.6-37.1 8.4-71.2 4.4-95.6-9.7l-47.3-27.3s-16.5-9.2-47.1-27.2-38.8-133.4 132.1-232.1l275.5 159.1Z" fill="#ffee52"/><path d="M1732.7 1418.2c-30.2 16.4-159.9 100.4-211.9 101-11.6.1 69.4-21.9 172-103.4 8 2.1 39.9 2.4 39.9 2.4Z" transform="translate(-713.9 -271)" fill="url(#x)"/><path d="M1457.2 1259.1c-25.6 22.3-79.4 55.5-116.5 137.9-16.1 35.9 46.1-73.6 115.8-122.4.3-7.5.7-15.5.7-15.5Z" transform="translate(-713.9 -271)" fill="url(#y)"/><g clip-path="url(#z)"><path d="M1294.1 1484c-2.4 37.3 15.4 69 25.7 75.8 25.5 16.8 69.6 41.3 107.5 61.7 30.1 16.2 84.4 14.8 102.7 10.8 49.6-10.8 115.2-26.8 214.2-101.1 0-28.2 4.4-62.1-1.6-88.7-86.3 50-147.8 88.9-212.8 107.4-9.9 2.8-69.3 14.7-102.5-1.8-38-18.9-67.2-39.3-104.4-60.1-13.3-7.5-14.8-62.3-6.8-85.2-16.4 22.5-22 53-22 81.2Z" transform="translate(-713.9 -271)" fill="url(#A)"/></g><path d="M1578.5 840c.3 4.6-.1 14.3-10.7 20.4l-15.9 9.2c1.9 11.7 10.2 32.2 29.9 24.8v-42c0-3 0-11.4-3.3-12.4Z" fill="#e03b4b"/><path fill="#dddd1b" d="m1243 1082.7-12.5 7.3v-7l12.5-7.2v6.9zM1401.2 992l-12.5 7.2v-6.9l12.5-7.2v6.9z"/><path d="M1453.9 726.4 1275 623.1c-21.4-12.4-58.7-10.8-83.4 3.4L893.1 798.9a173.2 173.2 0 0 0-27.4 20.1c24.8 30.5 58.9 59.2 102.6 84.4s96.5 46.2 151.4 60.6l328.2-189.5c24.7-14.2 27.4-35.8 6-48.1Z" fill="#0a4b7c"/><path d="M2270.3 1083.4c-22.4-22.6-80.4-73.3-102.5-86 21.4 12.3 18.7 33.9-6 48.1L1833.6 1235l-100.9 183.2 530.6-306.4c13.1-7.5 12.7-23 7-28.4Z" transform="translate(-713.9 -271)" fill="url(#B)"/><path d="m1556.4 812.4-5-4.9c5.7 5.5 6.1 20.9-7 28.4l-519.3 299.8-6.3 11.5 530.6-306.4c13.1-7.5 12.7-23 7-28.4Z" fill="#042c5b"/><path d="M1846.4 1227.6c-4.2 2.4-11.3 6.7-22.8 4.6-51.1-14.1-99-33.4-141.4-57.8s-77.8-53.8-102.6-84.4c-8.4 7.8-20.6 23.2-23.2 27l-99.2 142.1c-16.3 22.9 50.6 66.1 104.1 97s148.1 75.5 171.4 62.1l28.5-16.5Z" transform="translate(-713.9 -271)" fill="url(#C)"/><path d="M1672.5 1186.3c-41.5-23.9-73.8-51-97.3-80-8 7.4-19.5 22-22 25.6l-84.3 122.3c-14.1 21.9 48.7 62.4 99 91.4 48.2 27.8 131.4 67.4 158.6 60.3l89.4-162.1c-52-13.7-100.7-32.8-143.4-57.5Z" transform="translate(-713.9 -271)" opacity=".47" fill="url(#D)"/><path d="M1807.5 1241.4c-48.8-13.4-94.6-31.7-135-55.1s-73.8-51-97.3-80c-8 7.4-19.5 22-22 25.6l-52.3 75.9c35.1 4 95.9 55.1 127.4 103 33.4 50.8 116.6-3.8 179.2-69.4Z" transform="translate(-713.9 -271)" opacity=".47" fill="url(#c)" style="mix-blend-mode:screen"/><path d="M1672.5 1186.3c-41.4-23.9-73.8-51-97.3-80-8 7.4-19.5 22-22 25.6l-81.7 118.6c3.5 10.3 15.4 22.5 31.4 35 16.3-14 84.4-68.4 179.9-93.5-3.5-1.9-7-3.7-10.3-5.7Z" transform="translate(-713.9 -271)" opacity=".47" fill="url(#E)" style="mix-blend-mode:screen"/><path d="M1620.8 1151.2a298.9 298.9 0 0 1-45.6-44.9c-8 7.4-19.5 22-22 25.6l-79.2 114.9c41.3-28.2 104.3-68.5 146.8-95.6Z" transform="translate(-713.9 -271)" opacity=".47" fill="url(#F)" style="mix-blend-mode:screen"/><path fill="#042c5b" d="m1241.4 1018.7-9.6-119.4 28.3-16.4 9.6 119.4-28.3 16.4zM1415.3 918.3l-66.2-86.7 40.4-23.4 66.3 86.7-40.5 23.4z"/><path d="M1792 1390.6c-17.2-3.9-24.3-13.6-21.1-20.8q-1.7 1.8-3.3 3.9c-7.5 10.1-12.4 30.3 47.8 35.9 32.7 3 34.6-7.8 27.8-19.4-13.1 12.7-34 4.4-51.2.4Z" transform="translate(-713.9 -271)" fill="url(#G)"/><path d="M1106.3 1096.4c-10.8-5.9-31.7-16.6-49.3 2.4-3.2 7.2 3.9 16.9 21.1 20.8s38.1 12.3 51.1-.4c-5.7-9.7-17.7-19.9-22.9-22.8Z" fill="#1565a0"/><path d="M1581.8 852.4c0 5.8-2.2 11-11 15-10.6 4.9 3.4 17.5 11 17.9Z" fill="#ff4f5b"/><path d="M1120.2 972.8 1455.7 779c20.2-11.7 25.6-28.3 15.2-40.7a160.2 160.2 0 0 0-17-11.9c21.4 12.3 18.7 33.9-6 48.1L1119.7 964l-4.1 7.4Z" fill="#042c5b"/><path d="M622.8 1317.3a81 81 0 0 1-4.1-12 7 7 0 0 1-.3-3.1c-3.7-2-6.6-.2-5.1 5.2a81 81 0 0 0 4.1 12c2.1 5.5 6.9 10.8 10.6 12.9l79.3 45.9c3 1.7 4.7.6 4.5-2.7-22.2-12.8-48.3-27.8-70.8-40.9-3.7-2.1-16-11.8-18.2-17.3Z" fill="#dddd1b"/><path d="M707.7 1360.8c-1.7-5.4-6.1-10.6-9.8-12.7l-79.4-45.9h-.1a7 7 0 0 0 .3 3.1 81 81 0 0 0 4.1 12c2.2 5.5 8.4 12 12.1 14.1l76.9 44.1a22.1 22.1 0 0 0-.5-2.9c-1.4-4.7-2.1-7.2-3.6-11.8Z" fill="#042c5b"/><path d="M739.7 1371.7a21.2 21.2 0 0 1-.9-7l-2-.5c-4.9-1.1-4.7 4-3.2 9.9s3.9 11.2 10.4 13.4 25.1 3.3 36.3 4.1c2.5.2 3.4-.8 3-2.5-11.3-.9-27.3-2-33.2-4s-8.9-7.5-10.4-13.4Z" fill="#dddd1b"/><path d="M758.6 1367.6c-4.4-.5-12-1.3-19.8-2.9a21.2 21.2 0 0 0 .9 7c1.5 5.9 3.9 11.3 10.4 13.4s21.9 3.1 33.2 4c-1.2-6.1-16.6-20.6-24.7-21.5Z" fill="#042c5b"/><path fill="url(#H)" d="m760.1 1372.8-15.1 8.7-4.6-8.7 9-5.2 10.7 5.2z"/><path d="M739.1 1375.2c0-2.3 1.6-3.2 3.5-2.1a8.1 8.1 0 0 1 3.5 6.1c0 2.3-1.6 3.2-3.5 2.1a8.1 8.1 0 0 1-3.5-6.1Z" fill="#2075a8"/><path d="M740.8 1376.1c0-1.1.8-1.6 1.8-1a4.1 4.1 0 0 1 1.8 3.2c0 1.1-.8 1.6-1.8 1a4.1 4.1 0 0 1-1.8-3.2Z" fill="#f7f7fc"/><path fill="url(#I)" d="m770.9 1375.7-15.1 8.8-4.6-8.8 10.7-6.2 9 6.2z"/><path d="M749.9 1378.1c0-2.3 1.5-3.2 3.5-2.1a8.1 8.1 0 0 1 3.5 6.1c0 2.3-1.6 3.2-3.5 2.1a7.8 7.8 0 0 1-3.5-6.1Z" fill="#2075a8"/><path d="M751.5 1379c0-1.1.9-1.6 1.9-1a4.1 4.1 0 0 1 1.8 3.2c0 1.1-.8 1.6-1.8 1a4.2 4.2 0 0 1-1.9-3.2Z" fill="#f7f7fc"/><path d="M1491.6 1651.5a63.7 63.7 0 0 0-7.6-7l-6.8 3.9 4.6 8.8Z" transform="translate(-713.9 -271)" fill="url(#J)"/><path d="M761.9 1379.8c0-2.2 1.6-3.1 3.6-2a7.8 7.8 0 0 1 3.5 6.1c0 2.2-1.6 3.1-3.5 2a7.6 7.6 0 0 1-3.6-6.1Z" fill="#2075a8"/><path d="M763.6 1380.8c0-1.2.8-1.7 1.9-1.1a4.1 4.1 0 0 1 1.8 3.2c0 1.2-.8 1.7-1.8 1.1a3.9 3.9 0 0 1-1.9-3.2Z" fill="#f7f7fc"/><path d="M1323.6 1549.4c2.2 1.3 4.3-1.2 6.4 0 27.7 15.9 36.2 21 36.2 21l43.2 25c2.4 1.3 4.8 6.4 7.4 7.9 26 15 59.3 23.3 104.1 16.9 12.6-1.8 27-5.7 41.4-10.6 26.9-10.7 52-42 57.8-65.9 2.2-9-7.1-10.4-15.4-6.4-24.1 11.8-60.6 20.3-87.8 24.2-41.9 6-73-1.7-97.4-15.8l-47.3-27.3s-16.5-9.2-47.1-27.2c-16.1-9.5-25.8-43.9-9-88.4a57.2 57.2 0 0 0-11.8 23.2c-7.4 27.9-6.8 61.2-6.8 61.2-1.1 17 9.5 52.7 26.1 62.2Z" transform="translate(-713.9 -271)" fill="url(#K)"/><g style="mix-blend-mode:screen"><path d="M1453.6 1618a128 128 0 0 0 12.9 2.5l-10.9-60.6a125.2 125.2 0 0 1-13.1-3.8Z" transform="translate(-713.9 -271)" fill="url(#d)"/><path d="m1497.3 1622.3-10.6-58.8c-4.3-.1-8.5-.3-12.5-.7l10.7 59.4c4 .2 8.1.2 12.4.1Z" transform="translate(-713.9 -271)" fill="url(#L)"/><path d="m1330 1494.1-4.9-2.9a29.5 29.5 0 0 1-3.1-2.2l-19.2 28.9a81.1 81.1 0 0 0 4.3 10.6Z" transform="translate(-713.9 -271)" fill="url(#M)"/><path d="m1299.1 1504 15.8-23.8a49.7 49.7 0 0 1-3.5-7.7l-13.8 20.7a75.4 75.4 0 0 0 1.5 10.8Z" transform="translate(-713.9 -271)" fill="url(#N)"/><path d="m1505.9 1562.7 10.5 58 4.5-.5 7.6-1.3-10.4-57.6-1.2.2Z" transform="translate(-713.9 -271)" fill="url(#O)"/></g><path d="m1606.2 1536.7-1.5.6c-24.1 11.8-60.6 20.3-87.8 24.2-41.9 6-73-1.7-97.4-15.8-29.2-16.9-63.8-36.5-94.4-54.5-16.1-9.5-25.8-43.9-9-88.4a57.2 57.2 0 0 0-11.8 23.2c-.7 2.5-1.3 5.1-1.8 7.6-5.4 31.7 3.3 55 16.1 62.6 30.6 18 65.2 37.6 94.4 54.5 24.4 14 63.3 23.6 105.2 17.6 27.2-3.9 59.4-12.1 84.1-22.5 9.5-4 15.6-8.8 17.5-7.3-1.8-3.8-7.7-4.2-13.6-1.8Z" transform="translate(-713.9 -271)" fill="url(#P)"/><path fill="#eaeef9" d="m644.5 1248.2 26.5 15.3-5.9 43.3-29.5-17.1 8.9-41.5z"/><path d="m2068.6 971.6-6.6-3.9c-9.6 0-14.9 2.1-31.8 2.3l-18.9 10.9 6.6 3.8s38.9-6.8 50.7-13.1Z" transform="translate(-713.9 -271)" fill="url(#Q)" style="mix-blend-mode:multiply"/><path d="M1304 713.7s12-22.9 23.2-29.9c0 5.7-3.5 8.8-3.9 18.8Z" fill="#20659e"/><path d="m1327.2 683.8-6.7-3.9c-11.3 7-23.2 29.9-23.2 29.9l6.7 3.9s12-22.9 23.2-29.9Z" fill="#1d6291"/><path d="M2127.1 1575.3c-25.1-14.5-65.8-14.5-90.9 0-18.4 10.6-23.3 26-14.8 39.2l-143.2 82.8c-22.9-4.9-49.6-2.1-68 8.5-11.9 6.8-18.1 15.7-18.7 24.7l-25.1 14.5h29.1l47.6-27.5 37.7 21.8-47.6 27.5h.3l-4 2.3h29.2c15.4-.3 30.7-3.9 42.5-10.7 18.3-10.6 23.2-26.1 14.7-39.3l143.3-82.7c22.8 4.9 49.5 2.1 67.9-8.5 25.1-14.6 25.1-38.1 0-52.6Zm-20.5 40.7-34.1 5.2-24.9-14.4 9.1-19.6 34.1-5.3 24.9 14.4Z" transform="translate(-713.9 -271)" fill="url(#R)" style="mix-blend-mode:multiply"/><path d="m1172.9 1431.3 143.3-82.8c22.9 4.9 49.6 2.1 67.9-8.5 25.2-14.5 25.2-38 0-52.5s-65.8-14.5-90.9 0c-18.3 10.6-23.2 26.1-14.7 39.3l-143.3 82.7c-22.9-4.9-49.6-2.1-67.9 8.5s-23.3 26-14.8 39.2l47.6-27.5 37.8 21.8-47.6 27.5c22.8 4.9 49.5 2.1 67.9-8.5s23.2-26 14.7-39.2Zm174.9-137.2 25 14.4-9.2 19.7-34 5.3-25-14.4 9.1-19.7Z" fill="#eaeef9"/><path d="m1870.9 1684.8 124.7-72a14.2 14.2 0 0 1 12.7 0 5.7 5.7 0 0 1 2.4 2.5c.7-1.8-.1-3.6-2.4-4.9a13.6 13.6 0 0 0-12.7 0l-124.7 71.9c-2.3 1.4-3 3.2-2.3 4.9a4.8 4.8 0 0 1 2.3-2.4Z" transform="translate(-713.9 -271)" fill="url(#S)"/><path d="M1157 1418.7a14.2 14.2 0 0 0 12.7 0l124.7-72a6.1 6.1 0 0 0 2.4-2.4 5.7 5.7 0 0 0-2.4-2.5 14.2 14.2 0 0 0-12.7 0l-124.7 72a4.8 4.8 0 0 0-2.3 2.4 4.9 4.9 0 0 0 2.3 2.5Z" fill="#95bcd1"/><path d="M1274.4 1314v15.1l4.1-2.3a24.5 24.5 0 0 1-4.1-12.8Z" fill="#1d6291"/><path d="M1274.5 1313.5h-.1v.4c0-.2.1-.3.1-.4Z" fill="#0f5b93"/><path fill="#2075a8" d="M1100.1 1429.8v16.7l23.2 13.4 14.6-8.4-37.8-21.7z"/><path fill="#0a4b7c" d="M1052.6 1457.2v16.8l47.5-27.5v-16.7l-47.5 27.4z"/><path d="M1048.5 1444.3v15.4h.1a23.7 23.7 0 0 0 3.9 14.3v-16.8a24.1 24.1 0 0 1-4-12.9Z" fill="#2075a8"/><path d="M2098 1611c-18.3 10.6-45 13.4-67.9 8.5v16.8c22.9 4.9 49.6 2.1 67.9-8.5 12.6-7.2 18.9-16.7 18.9-26.2v-16.8c0 9.5-6.3 19-18.9 26.2Z" transform="translate(-713.9 -271)" fill="url(#e)"/><path d="M1872.1 1741.5c-18.4 10.6-45.1 13.4-67.9 8.5v16.8c22.8 4.9 49.5 2.1 67.9-8.5 12.3-7.1 18.5-16.4 18.7-25.7h.1v-15.9h-.1c-.6 9-6.8 17.9-18.7 24.8Z" transform="translate(-713.9 -271)" fill="url(#T)"/><path d="M1316.2 1365.3v-16.8l-143.3 82.8a23.4 23.4 0 0 1 4 14.4h.1Z" fill="#1565a0"/><path d="m1379 1305.1-29.5-17.1-40.4 6.3-10.8 23.3 29.6 17 40.3-6.2Zm-49.4 25.9-25-14.4 9.1-19.7 34.1-5.2 25 14.4-9.2 19.6Z" fill="#fff"/><path fill="#a4c8dd" d="M1379 1305.1v2.5l-10.8 23.3v-2.5l10.8-23.3z"/><path fill="#9ec6db" d="M1368.2 1328.4v2.5l-40.3 6.2v-2.5l40.3-6.2z"/><path fill="#8bb8d1" d="M1327.9 1334.6v2.5l-29.5-17.1v-2.4l29.5 17z"/><path fill="#0746aa" d="m1304.6 1316.6 7 4.1 2.1-4.5v-19.3l-9.1 19.7z"/><path fill="#0a4b7c" d="M1313.7 1296.9v19.3l34.1-5.3v-19.2l-34.1 5.2z"/><path fill="#0e67aa" d="M1347.8 1291.7v19.2l18 10.3 7-15.1-25-14.4z"/><path fill="url(#U)" style="mix-blend-mode:multiply" d="M287.6 1426.7h219.6v96.07H287.6z"/><path d="M918.2 1566.8v179c0 12.3 8.2 24.5 24.4 33.9 32.5 18.8 85.2 18.8 117.7 0 16.2-9.4 24.3-21.6 24.3-33.9v-179Z" transform="translate(-713.9 -271)" fill="url(#V)"/><path d="M228.7 1440.8c32.5-18.8 85.2-18.8 117.7 0 16.2 9.4 24.3 21.7 24.3 34s-8.1 24.5-24.3 33.9c-32.5 18.8-85.2 18.8-117.7 0-16.2-9.4-24.4-21.6-24.4-33.9s8.2-24.6 24.4-34Z" fill="#8bb8d1"/><g style="mix-blend-mode:multiply"><path d="M343.8 1339.1c-31.1-17.9-81.4-17.9-112.5 0-15.1 8.7-22.8 20.1-23.2 31.5v104.2c0 11.7 7.7 23.5 23.2 32.4 31.1 17.9 81.4 17.9 112.5 0 15.5-8.9 23.2-20.7 23.2-32.4v-103.2c0-11.8-7.7-23.5-23.2-32.5Z" fill="#2a75ad"/><path d="M945.2 1713.3c31.1-17.9 81.4-17.9 112.5 0s31 47 0 64.9-81.4 17.9-112.5 0-31-47 0-64.9Z" transform="translate(-713.9 -271)" fill="url(#W)"/><path d="M231.3 1339.1c31.1-17.9 81.4-17.9 112.5 0s31 47 0 64.9-81.4 17.9-112.5 0-31-47 0-64.9Z" fill="#1d6291"/></g><path d="M1045.5 1786.5a86.9 86.9 0 0 0 14.8-6.8 67.8 67.8 0 0 0 11.7-8.5v-184.6h-26.5ZM1025 1791.8a122 122 0 0 0 12.3-2.7v-182.8H1025Z" transform="translate(-713.9 -271)" fill="#dce1f4" style="mix-blend-mode:multiply"/><path d="M932.2 1772.4a72 72 0 0 0 8 5.9v-202.7h-8Z" transform="translate(-713.9 -271)" fill="url(#X)" style="mix-blend-mode:screen"/><path d="M942.6 1532.8c32.5-18.7 85.2-18.7 117.7 0s32.5 49.2 0 68-85.2 18.7-117.7 0-32.5-49.2 0-68Z" transform="translate(-713.9 -271)" fill="url(#Y)"/><path d="M1084.6 1694.2v-127.4H918.2c0 39.5 68.9 193.8 166.4 127.4Z" transform="translate(-713.9 -271)" fill="url(#Z)" style="mix-blend-mode:screen"/><path d="M228.7 1253.3c32.5-18.7 85.2-18.7 117.7 0 16.2 9.4 24.3 21.7 24.3 34s-8.1 24.6-24.3 33.9c-32.5 18.8-85.2 18.8-117.7 0-16.2-9.3-24.4-21.6-24.4-33.9s8.2-24.6 24.4-34Z" fill="#fff"/><path d="M266.4 1264.9c11.7-6.7 30.6-6.7 42.3 0 5.8 3.4 8.8 7.8 8.8 12.2s-3 8.9-8.8 12.2c-11.7 6.8-30.6 6.8-42.3 0-5.9-3.3-8.8-7.8-8.8-12.2s2.9-8.8 8.8-12.2Z" fill="#2075a8"/><path d="M1022.6 1560.3c-11.7 6.8-30.6 6.8-42.3 0-5.9-3.3-8.8-7.8-8.8-12.2v10.2c0 4.4 2.9 8.8 8.8 12.2 11.7 6.7 30.6 6.7 42.3 0 5.8-3.4 8.8-7.8 8.8-12.2v-10.2c0 4.4-3 8.9-8.8 12.2Z" transform="translate(-713.9 -271)" fill="url(#aa)"/><path d="M1084.6 1558.3c0 12.3-8.1 24.6-24.3 33.9-32.5 18.8-85.2 18.8-117.7 0-16.2-9.3-24.4-21.6-24.4-33.9v8.5c0 12.3 8.2 24.6 24.4 34 32.5 18.7 85.2 18.7 117.7 0 16.2-9.4 24.3-21.7 24.3-34v-8.5Z" transform="translate(-713.9 -271)" fill="url(#ab)"/><path d="M2850.1 1119.3H2757c-159.4 0-225.4 45.6-210.5 72.8 32.3 11.1 88.7 25.2 155 38.1l130.1-75.1c17.7-10.2 24.1-24.2 18.5-35.8Z" transform="translate(-713.9 -271)" fill="url(#ac)" style="mix-blend-mode:multiply"/><path d="M2437.7 840.6c-22.8-22.4-37.8-55.1-53.5-83v121.1c-.2 94.9 53.5 206.4 125.8 267.4-23-98.1-18.8-201-18.7-301-18.7 10.8-33.8 15-53.6-4.5Z" transform="translate(-713.9 -271)" fill="url(#ad)"/><path d="M2563.9 913.5c-33.8-11-53.6-40.7-72.6-68.4-.1 100-4.3 202.9 18.7 301 67.7 17.6 126.5-79.9 126.5-121.8V903.2c-18.7 10.9-41 20.6-72.6 10.3Z" transform="translate(-713.9 -271)" fill="url(#ae)"/><path d="M2636.5 933.3c-41.5 26.1-92.1 165.6-135.1 168.3 2.4 15 5.2 29.8 8.6 44.5 67.7 17.6 126.5-79.9 126.5-121.8Z" transform="translate(-713.9 -271)" fill="url(#af)" style="mix-blend-mode:multiply"/><path d="m2491.3 845.1 12.4-7.2c-18.8 10.9-33.8 15.1-53.6-4.4-22.8-22.5-43.3-52-59-79.9l-6.9 4c15.7 27.9 30.7 60.6 53.5 83 19.8 19.5 34.9 15.3 53.6 4.5Z" transform="translate(-713.9 -271)" fill="url(#f)"/><path d="M2576.3 906.3c-33.8-11-53.6-40.7-72.6-68.4l-12.4 7.2c19 27.7 38.8 57.4 72.6 68.4 31.6 10.3 53.9.6 72.6-10.3l7-4c-18.8 10.9-35.6 17.4-67.2 7.1Z" transform="translate(-713.9 -271)" fill="url(#ag)"/><path d="M2636.5 903.2v121.1c0 28.7-27.5 83.4-66.6 109.4 43.5-21 73.6-81.9 73.6-113.4V899.2Z" transform="translate(-713.9 -271)" fill="url(#ah)"/><path d="M1600.1 1795c-21.7-12.5-50.6-18.3-79-17.5h-32.8v7.3a122.6 122.6 0 0 0-23.6 10.2c-40.4 23.5-40.2 61.6.5 85.1a117.6 117.6 0 0 0 23.1 10v7.6h41.7c25.6-.4 51.1-6.2 70.6-17.6 40.4-23.5 40.2-61.6-.5-85.1Z" transform="translate(-713.9 -271)" fill="url(#ai)" style="mix-blend-mode:multiply"/><path d="M1419.4 1880.2c-20.4-11.9-30.7-27.4-30.6-42.9v-19.8c-.1 15.5 10.1 31 30.6 42.8 40.7 23.5 106.5 23.5 146.9 0 20.1-11.7 30.2-26.9 30.2-42.2v19.8c0 15.3-10.1 30.6-30.1 42.3-40.5 23.5-106.3 23.5-147 0Z" transform="translate(-713.9 -271)" fill="url(#aj)"/><path d="M705.6 1589.3c-40.7-23.5-40.9-61.6-.5-85.1s106.3-23.5 147 0 40.9 61.6.4 85.1-106.2 23.5-146.9 0Z" fill="#f0f2f6"/><path d="M1500.7 1806.7c7.5 4.3 19.6 4.3 27.1 0s7.5-11.3 0-15.7-19.6-4.3-27.1 0-7.6 11.4 0 15.7Zm9.1 16.3a78.3 78.3 0 0 0 15.3-.3l-2-5.5a53.5 53.5 0 0 1-12 .2c-18.6-1.5-31.7-11.5-29-22.3l-9.6-.8c-3.4 13.9 13.3 26.7 37.3 28.7Zm-47-2c10.7 8.2 26.3 13.5 43.9 14.9a111.4 111.4 0 0 0 23.1-.4l-2-5.5a100.5 100.5 0 0 1-19.8.4c-15-1.2-28.3-5.8-37.5-12.8s-13-15.6-10.8-24.3l-9.6-.8c-2.5 10.2 2 20.3 12.7 28.5Zm40.7 27.9a161.4 161.4 0 0 0 31.1-.6l-2-5.5a142.2 142.2 0 0 1-27.7.6c-43.5-3.6-73.8-26.9-67.7-52l-9.6-.8c-6.9 28.2 27.2 54.3 75.9 58.3Z" transform="translate(-713.9 -271)" fill="#8bb8d1" style="mix-blend-mode:multiply"/><path fill="#8bb8d1" d="M1150.6 214.7v103.1l167.3 96.6V311.3l-167.3-96.6z"/><path fill="#f7f7fc" d="m1311.6 307.6-154.3-89 77 112 77.3-23z"/><path fill="#0746aa" d="m1325.9 409.8-8 4.6V311.3l8-4.6v103.1z"/><path fill="#2075a8" d="m1325.9 306.7-8 4.6-167.3-96.6 7.9-4.6 167.4 96.6z"/><path d="M1104.1 624.8c4.7 2.8 5.9 14.5 5.9 20.1l-35.5-20.6c0-5.6-1.1-17.4-5.9-20.1Z" fill="#1565a0"/><path d="m1158.8 478.4 35.4 20.6c-4.9 2.8-15.7 7.8-20.5 5.1l-35.4-20.7c4.7 2.8 15.6-2.2 20.5-5Z" fill="#1d6291"/><path d="M1796.9 838.2c16.8-9.8 30.5-33.3 30.4-52.7 0-9.6-3.4-16.4-8.9-19.6l35.5 20.6c5.4 3.2 8.8 10 8.9 19.6 0 19.4-13.6 42.9-30.5 52.7-8.4 4.9-16.1 5.3-21.7 2.1l-35.4-20.6c5.5 3.2 13.2 2.8 21.7-2.1Z" transform="translate(-713.9 -271)" fill="url(#ak)"/><path fill="#1565a0" d="m1042.4 586.6.1 19.8-35.5-20.6V566l35.4 20.6z"/><path fill="#1d6291" d="m1091.3 439.9 35.4 20.6-17.2 10-35.5-20.6 17.3-10zM1029.4 542.3a93.2 93.2 0 0 1 3-9.9c3.9-10.1-5-17.9-9.3-20.4l35.5 20.6c4.2 2.5 13.2 10.3 9.2 20.4-1.1 3.3-2.1 6.6-2.9 9.9-2 10-16.6 20.3-22.5 23.7L1007 566c5.8-3.4 20.5-13.7 22.4-23.7Z"/><path d="M1767.7 763a13.3 13.3 0 0 0 3.8-3.4q3.4-3.9 7.2-7.5c7.7-6.8 9.3-24.5 9.2-31.2l35.5 20.6c0 6.7-1.6 24.5-9.3 31.2-2.4 2.4-4.8 4.9-7.1 7.5a13.6 13.6 0 0 1-3.9 3.4c-6.6 3.8-14.8.7-18.6-1.1l-35.5-20.6c3.8 1.8 12 4.9 18.7 1.1Z" transform="translate(-713.9 -271)" fill="url(#al)"/><path d="M1068 610.7c4 5.5-5.1 24-9.2 31.2l12.2 6.9c3.4-5.9 11.8-18.7 18.5-22.5a6.2 6.2 0 0 1 3.9-1.1 46.6 46.6 0 0 0 7.2-.8c7.7-2.1 9.4 13.7 9.4 20.5l17.2-10c0-6.7 1.6-22.7 9.3-31.2 2.4-2.3 4.8-4.9 7.1-7.5a13.6 13.6 0 0 1 3.9-3.4c6.7-3.9 15.2-.9 18.6 1.1l12.1-21c-4.1-2.4-13.3-10.3-9.3-20.5 1.1-3.3 2.1-6.6 2.9-9.9 2-10 16.6-20.3 22.5-23.7V499c-5.9 3.4-20.5 10-22.5 2.3a32.3 32.3 0 0 0-3-6.5c-4-5.6 4.5-23.7 9.2-31.2l-12.2-7c-3.4 5.9-11.8 18.7-18.5 22.6a6.9 6.9 0 0 1-3.9 1.1 36.5 36.5 0 0 0-7.2.7c-7.7 2.1-9.4-13.7-9.4-20.5l-17.2 10c0 6.7-1.6 24.5-9.3 31.2-2.4 2.4-4.8 4.9-7.1 7.5a13.6 13.6 0 0 1-3.9 3.4c-6.6 3.8-14.8.7-18.6-1.1l-12.2 21.1c4.2 2.3 13.4 10.2 9.4 20.4-1.1 3.3-2.1 6.6-2.9 9.9-2 10-16.6 20.3-22.5 23.7v19.8c5.9-3.4 20.5-9.9 22.5-2.3a33.2 33.2 0 0 0 3 6.6Zm19.8-40.4c0-19.3 13.6-42.9 30.4-52.7s30.6-1.9 30.7 17.5-13.6 42.9-30.5 52.7-30.5 1.9-30.6-17.5Z" fill="#dae0f5"/><path d="M1042.5 606.4c5.9-3.4 20.5-9.9 22.5-2.3a33.2 33.2 0 0 0 3 6.6c4 5.5-5.1 24-9.2 31.2l-35.5-20.6c2.6-4.5 7.1-13.3 9.1-20.7Z" fill="#1d6291"/><path fill="#1565a0" d="m1035.1 490.9 35.5 20.7-12.2 21L1023 512l12.1-21.1zM1130.3 436l35.4 20.6c-3.4 5.9-11.8 18.7-18.5 22.6a6.9 6.9 0 0 1-3.9 1.1 36.5 36.5 0 0 0-7.2.7c-7.7 2.1-9.4-13.7-9.4-20.5l-10.2-5.9c5.5-5.5 11.1-14.1 13.8-18.6Z"/><path d="M1651.2 645c3.9-9.8 10.1-13.4 13.9-8l61.2 87.1c3.8 5.4.7 13.5-6.9 17.9L1597 812.6c-7.7 4.5-10.8 0-7-9.8Z" transform="translate(-713.9 -271)" fill="#f2ed36" style="mix-blend-mode:multiply"/><path fill="#fff" d="m948.8 471.4-9 5.2v10.3l9-5.1v-10.4zM950.5 404.5l-12.4 7.2 1.7 54.4 9-5.1 1.7-56.5z"/><path d="m1114.1 180.7-23.9 13.8c-14 8-33.2-36-48.9-27l-41.9 24.2c-31.3 18.1-20-34.5-66.8-7.5-54.9 31.8-50.4 95.5-81.7 113.5l-42 24.2c-15.6 9.1-19.9 46.4-33.8 54.5l-24 13.8c-5.2 3-15.1 11.3-15.1 22.2l196.6-113.5 196.7-113.5c0-10.9-10-7.8-15.2-4.7Z" fill="#8bb8d1"/></g></svg>