<svg width="88" height="93" viewBox="0 0 88 93" fill="none" xmlns="http://www.w3.org/2000/svg">
<path d="M78.8778 41.4301C83.1366 45.9024 85.4523 51.8785 85.319 58.0528C85.1857 64.2271 82.6142 70.0977 78.1664 74.3821C73.7185 78.6665 67.7557 81.0165 61.5808 80.9186C55.4058 80.8207 49.5206 78.2829 45.2107 73.8596C40.9009 69.4364 38.5168 63.4872 38.5793 57.3118C38.6418 51.1364 41.1458 45.2367 45.5443 40.9016C49.9427 36.5665 55.8781 34.1483 62.0538 34.1754C68.2295 34.2025 74.1434 36.6726 78.5037 41.0461C78.63 41.1725 78.7547 41.3004 78.8778 41.4301Z" fill="#9DA4AA"/>
<path d="M81.701 29.3715L73.3043 29.4355L70.5234 24.3971H70.5251C70.5251 24.3971 74.7989 24.3824 76.8759 24.3676C78.953 24.3528 80.6625 25.347 81.1777 26.8548C81.4548 27.669 81.6306 28.5143 81.701 29.3715Z" fill="#9DA4AA"/>
<path d="M79.4839 36.5706L78.8768 41.4301C78.7538 41.3005 78.6291 41.1725 78.5028 41.0462C75.4052 37.9419 71.4991 35.7684 67.2282 34.7726C62.9573 33.7768 58.4927 33.9987 54.3416 35.413C50.1904 36.8273 46.5191 39.3773 43.7445 42.7735C40.97 46.1697 39.2034 50.2759 38.6454 54.6257H38.6438L22.4213 54.7454L14.4921 54.8028L14.0721 54.8061C13.2377 54.8104 12.4355 54.4839 11.8412 53.8982C11.2469 53.3125 10.9087 52.5152 10.9008 51.6807L8.94353 37.0907C8.92057 33.8389 11.1666 30.8776 14.415 30.8481L14.4003 30.8743L52.1658 30.5954L65.2219 30.5003L73.845 30.4363V30.4379C77.0984 30.415 79.4593 33.3156 79.4839 36.5706ZM18.7233 45.9369C19.3691 45.9323 19.999 45.7364 20.5334 45.3738C21.0678 45.0112 21.4826 44.4983 21.7255 43.8999C21.9683 43.3015 22.0282 42.6445 21.8977 42.0121C21.7671 41.3796 21.4519 40.8001 20.9919 40.3468C20.532 39.8935 19.9479 39.5868 19.3136 39.4654C18.6794 39.3441 18.0233 39.4136 17.4286 39.6652C16.8338 39.9167 16.3269 40.339 15.9722 40.8786C15.6174 41.4182 15.4306 42.0509 15.4355 42.6967C15.4386 43.1253 15.526 43.5492 15.6929 43.944C15.8598 44.3389 16.1029 44.6969 16.4082 44.9978C16.7135 45.2987 17.0751 45.5365 17.4723 45.6977C17.8696 45.8588 18.2947 45.9401 18.7233 45.9369Z" fill="#12293B"/>
<path d="M14.4171 30.848L14.9684 29.8538L17.7623 24.8171L20.7302 19.4637C22.3545 16.0512 24.9663 13.1604 28.4986 13.1342L59.8477 12.9045C63.3799 12.8782 65.6866 15.7313 67.6193 19.1372L70.5232 24.3971L73.3041 29.4354L73.857 30.4362H73.8471L65.224 30.5002L65.2223 30.2836C65.2095 28.5523 64.5094 26.8969 63.2761 25.6818C62.0428 24.4666 60.3772 23.7911 58.6459 23.804C56.9146 23.8168 55.2592 24.5169 54.0441 25.7502C52.8289 26.9835 52.1534 28.6491 52.1662 30.3804L52.1679 30.5953L14.4023 30.8742L14.4171 30.848Z" fill="#414D58"/>
<path d="M65.2223 30.2837L65.2239 30.5002L52.1678 30.5954L52.1662 30.3805C52.1534 28.6491 52.8288 26.9836 54.044 25.7503C55.2592 24.5169 56.9145 23.8168 58.6458 23.804C60.3772 23.7912 62.0427 24.4666 63.2761 25.6818C64.5094 26.897 65.2095 28.5523 65.2223 30.2837Z" fill="#9DA4AA"/>
<path d="M22.464 60.481C22.4655 60.6878 22.4263 60.8929 22.3485 61.0846C22.2707 61.2763 22.156 61.4507 22.0108 61.5981C21.8656 61.7454 21.6928 61.8627 21.5023 61.9432C21.3118 62.0237 21.1073 62.066 20.9005 62.0675L16.1197 62.1019C15.913 62.1036 15.7079 62.0645 15.5163 61.9869C15.3247 61.9093 15.1502 61.7947 15.0029 61.6496C14.8556 61.5046 14.7383 61.332 14.6577 61.1416C14.5771 60.9512 14.5348 60.7468 14.5332 60.5401L14.4938 55.0604L14.4922 54.8028L22.4213 54.7454L22.423 55.0013L22.464 60.481Z" fill="#414D58"/>
<path d="M21.9651 42.649C21.97 43.2948 21.7832 43.9275 21.4285 44.4671C21.0737 45.0067 20.5669 45.429 19.9721 45.6805C19.3773 45.9321 18.7213 46.0016 18.087 45.8802C17.4527 45.7589 16.8686 45.4522 16.4087 44.9989C15.9487 44.5456 15.6335 43.9661 15.503 43.3336C15.3724 42.7012 15.4323 42.0442 15.6752 41.4458C15.918 40.8474 16.3329 40.3345 16.8673 39.9719C17.4016 39.6093 18.0316 39.4133 18.6773 39.4088C19.106 39.4056 19.5311 39.4869 19.9283 39.648C20.3255 39.8092 20.6871 40.047 20.9924 40.3478C21.2977 40.6487 21.5408 41.0068 21.7077 41.4017C21.8746 41.7965 21.9621 42.2204 21.9651 42.649Z" fill="#9DA4AA"/>
<path d="M17.7616 24.8171L14.9676 29.8538L14.9627 29.8521L6.625 29.9243C6.6824 29.0664 6.84551 28.2189 7.11062 27.401C7.60281 25.8851 9.29594 24.8663 11.3746 24.8499C13.4533 24.8335 17.7534 24.8121 17.7534 24.8121L17.7616 24.8171Z" fill="#9DA4AA"/>
<path d="M35.9178 43.9304C35.6147 43.9304 35.3238 43.8105 35.1087 43.5969C34.8935 43.3833 34.7716 43.0933 34.7694 42.7901L34.7481 39.7829C34.747 39.632 34.7756 39.4825 34.8323 39.3427C34.8891 39.203 34.9728 39.0758 35.0786 38.9684C35.1845 38.861 35.3105 38.7755 35.4494 38.7168C35.5884 38.6581 35.7375 38.6273 35.8883 38.6262H35.8967C36.1998 38.6262 36.4907 38.7461 36.7058 38.9597C36.921 39.1733 37.0429 39.4633 37.0451 39.7665L37.0664 42.7737C37.0675 42.9245 37.0389 43.0741 36.9822 43.2138C36.9254 43.3536 36.8418 43.4808 36.7359 43.5882C36.63 43.6956 36.504 43.7811 36.3651 43.8398C36.2261 43.8985 36.077 43.9293 35.9262 43.9304H35.9178Z" fill="#9DA4AA"/>
<path d="M30.3492 43.9714C30.0461 43.9714 29.7553 43.8516 29.5402 43.6382C29.3251 43.4247 29.2031 43.1349 29.2007 42.8318L29.1778 39.8246C29.1766 39.6738 29.2052 39.5242 29.2618 39.3844C29.3184 39.2446 29.4021 39.1174 29.5079 39.0099C29.6137 38.9024 29.7396 38.8169 29.8785 38.7581C30.0174 38.6993 30.1665 38.6684 30.3173 38.6673C30.4682 38.6661 30.6177 38.6947 30.7575 38.7513C30.8973 38.8079 31.0245 38.8916 31.132 38.9974C31.2395 39.1032 31.325 39.2291 31.3838 39.368C31.4426 39.5069 31.4735 39.656 31.4746 39.8068L31.4976 42.8141C31.4988 42.9649 31.4702 43.1145 31.4136 43.2543C31.3569 43.3941 31.2733 43.5214 31.1675 43.6288C31.0616 43.7363 30.9357 43.8219 30.7967 43.8807C30.6578 43.9394 30.5087 43.9703 30.3579 43.9714H30.3492Z" fill="#9DA4AA"/>
<path d="M41.4898 43.8893C41.1867 43.8894 40.896 43.7696 40.6808 43.5561C40.4657 43.3427 40.3437 43.0528 40.3414 42.7498L40.3184 39.7425C40.3172 39.5917 40.3458 39.4421 40.4024 39.3023C40.4591 39.1625 40.5427 39.0352 40.6485 38.9278C40.7544 38.8203 40.8804 38.7347 41.0193 38.676C41.1582 38.6172 41.3073 38.5863 41.4581 38.5852H41.467C41.77 38.5852 42.0608 38.705 42.2759 38.9184C42.4911 39.1319 42.6131 39.4217 42.6154 39.7248L42.6384 42.732C42.6396 42.8829 42.611 43.0325 42.5544 43.1723C42.4977 43.312 42.4141 43.4393 42.3082 43.5468C42.2024 43.6542 42.0764 43.7398 41.9375 43.7986C41.7986 43.8574 41.6495 43.8882 41.4987 43.8893H41.4898Z" fill="#9DA4AA"/>
<path d="M73.4156 58.7699C73.111 58.7699 72.8189 58.6489 72.6036 58.4335C72.3882 58.2182 72.2672 57.9261 72.2672 57.6215V52.1746C72.2672 49.429 71.1765 46.7958 69.2351 44.8544C67.2936 42.913 64.6605 41.8223 61.9148 41.8223C59.1692 41.8223 56.5361 42.913 54.5946 44.8544C52.6532 46.7958 51.5625 49.429 51.5625 52.1746V57.6215C51.5625 57.9261 51.4415 58.2182 51.2261 58.4335C51.0108 58.6489 50.7186 58.7699 50.4141 58.7699C50.1095 58.7699 49.8174 58.6489 49.602 58.4335C49.3866 58.2182 49.2656 57.9261 49.2656 57.6215V52.1746C49.2656 48.8198 50.5983 45.6024 52.9705 43.2303C55.3427 40.8581 58.5601 39.5254 61.9148 39.5254C65.2696 39.5254 68.487 40.8581 70.8592 43.2303C73.2314 45.6024 74.5641 48.8198 74.5641 52.1746V57.6215C74.5641 57.9261 74.4431 58.2182 74.2277 58.4335C74.0123 58.6489 73.7202 58.7699 73.4156 58.7699Z" fill="#12293B"/>
<path d="M70.0857 73.6881H68.4746C68.17 73.6881 67.8779 73.5671 67.6625 73.3517C67.4472 73.1363 67.3262 72.8442 67.3262 72.5396C67.3262 72.2351 67.4472 71.9429 67.6625 71.7276C67.8779 71.5122 68.17 71.3912 68.4746 71.3912H70.0857C70.6638 71.3906 71.218 71.1606 71.6268 70.7519C72.0355 70.3431 72.2654 69.7889 72.2661 69.2108V66.9664C72.2661 66.6618 72.3871 66.3697 72.6025 66.1544C72.8178 65.939 73.1099 65.818 73.4145 65.818C73.7191 65.818 74.0112 65.939 74.2266 66.1544C74.442 66.3697 74.563 66.6618 74.563 66.9664V69.2108C74.5616 70.3978 74.0895 71.5359 73.2501 72.3752C72.4108 73.2146 71.2727 73.6867 70.0857 73.6881Z" fill="#12293B"/>
<path d="M77.5543 60.381V64.0609C77.5543 64.4233 77.483 64.7822 77.3443 65.117C77.2056 65.4518 77.0023 65.756 76.7461 66.0122C76.4898 66.2685 76.1856 66.4718 75.8508 66.6104C75.516 66.7491 75.1572 66.8205 74.7948 66.8204H71.5742V57.6215H74.7948C75.1572 57.6214 75.516 57.6928 75.8508 57.8315C76.1856 57.9701 76.4898 58.1734 76.7461 58.4297C77.0023 58.6859 77.2056 58.9901 77.3443 59.3249C77.483 59.6598 77.5543 60.0186 77.5543 60.381Z" fill="#414D58"/>
<path d="M68.1761 72.4247V72.6544C68.1761 72.9095 68.1259 73.1621 68.0283 73.3978C67.9307 73.6335 67.7876 73.8476 67.6072 74.028C67.4268 74.2084 67.2127 74.3515 66.977 74.4491C66.7413 74.5467 66.4887 74.5969 66.2336 74.5969H63.5167C63.2616 74.5969 63.009 74.5467 62.7733 74.4491C62.5376 74.3515 62.3235 74.2084 62.1431 74.028C61.9627 73.8476 61.8197 73.6335 61.722 73.3978C61.6244 73.1621 61.5742 72.9095 61.5742 72.6544V72.4247C61.5741 71.9094 61.7786 71.415 62.1429 71.0505C62.5072 70.6859 63.0013 70.4809 63.5167 70.4806H66.2336C66.749 70.4809 67.2431 70.6859 67.6074 71.0505C67.9717 71.415 68.1762 71.9094 68.1761 72.4247Z" fill="#414D58"/>
<path d="M52.2535 57.6215V66.8204H49.033C48.6706 66.8205 48.3117 66.7491 47.9769 66.6104C47.6421 66.4718 47.3379 66.2685 47.0816 66.0122C46.8254 65.756 46.6221 65.4518 46.4834 65.117C46.3448 64.7822 46.2734 64.4233 46.2734 64.0609V60.381C46.2734 60.0186 46.3448 59.6598 46.4834 59.3249C46.6221 58.9901 46.8254 58.6859 47.0816 58.4297C47.3379 58.1734 47.6421 57.9701 47.9769 57.8315C48.3117 57.6928 48.6706 57.6214 49.033 57.6215H52.2535Z" fill="#414D58"/>
</svg>
