<svg width="88" height="93" viewBox="0 0 88 93" fill="none" xmlns="http://www.w3.org/2000/svg">
<path d="M78.8778 44.4301C83.1366 48.9024 85.4523 54.8785 85.319 61.0528C85.1857 67.2271 82.6142 73.0977 78.1664 77.3821C73.7185 81.6665 67.7557 84.0165 61.5808 83.9186C55.4058 83.8207 49.5206 81.2829 45.2107 76.8596C40.9009 72.4364 38.5168 66.4872 38.5793 60.3118C38.6418 54.1364 41.1458 48.2367 45.5443 43.9016C49.9427 39.5665 55.8781 37.1483 62.0538 37.1754C68.2295 37.2025 74.1434 39.6726 78.5037 44.0461C78.63 44.1725 78.7547 44.3004 78.8778 44.4301Z" fill="#9DA4AA"/>
<path d="M81.701 32.3715L73.3043 32.4355L70.5234 27.3971H70.5251C70.5251 27.3971 74.7989 27.3824 76.8759 27.3676C78.953 27.3528 80.6625 28.347 81.1777 29.8548C81.4548 30.669 81.6306 31.5143 81.701 32.3715Z" fill="#9DA4AA"/>
<path d="M79.4839 39.5706L78.8768 44.4301C78.7538 44.3005 78.6291 44.1725 78.5028 44.0462C75.4052 40.9419 71.4991 38.7684 67.2282 37.7726C62.9573 36.7768 58.4927 36.9987 54.3416 38.413C50.1904 39.8273 46.5191 42.3773 43.7445 45.7735C40.97 49.1697 39.2034 53.2759 38.6454 57.6257H38.6438L22.4213 57.7454L14.4921 57.8028L14.0721 57.8061C13.2377 57.8104 12.4355 57.4839 11.8412 56.8982C11.2469 56.3125 10.9087 55.5152 10.9008 54.6807L8.94353 40.0907C8.92057 36.8389 11.1666 33.8776 14.415 33.8481L14.4003 33.8743L52.1658 33.5954L65.2219 33.5003L73.845 33.4363V33.4379C77.0984 33.415 79.4593 36.3156 79.4839 39.5706ZM18.7233 48.9369C19.3691 48.9323 19.999 48.7364 20.5334 48.3738C21.0678 48.0112 21.4826 47.4983 21.7255 46.8999C21.9683 46.3015 22.0282 45.6445 21.8977 45.0121C21.7671 44.3796 21.4519 43.8001 20.9919 43.3468C20.532 42.8935 19.9479 42.5868 19.3136 42.4654C18.6794 42.3441 18.0233 42.4136 17.4286 42.6652C16.8338 42.9167 16.3269 43.339 15.9722 43.8786C15.6174 44.4182 15.4306 45.0509 15.4355 45.6967C15.4386 46.1253 15.526 46.5492 15.6929 46.944C15.8598 47.3389 16.1029 47.6969 16.4082 47.9978C16.7135 48.2987 17.0751 48.5365 17.4723 48.6977C17.8696 48.8588 18.2946 48.9401 18.7233 48.9369Z" fill="#12293B"/>
<path d="M14.4171 33.848L14.9684 32.8538L17.7623 27.8171L20.7302 22.4637C22.3545 19.0512 24.9663 16.1604 28.4986 16.1342L59.8477 15.9045C63.3799 15.8782 65.6866 18.7313 67.6193 22.1372L70.5232 27.3971L73.3041 32.4354L73.857 33.4362H73.8471L65.224 33.5002L65.2224 33.2836C65.2095 31.5523 64.5094 29.8969 63.2761 28.6818C62.0428 27.4666 60.3773 26.7911 58.6459 26.804C56.9146 26.8168 55.2592 27.5169 54.0441 28.7502C52.8289 29.9835 52.1534 31.6491 52.1663 33.3804L52.1679 33.5953L14.4023 33.8742L14.4171 33.848Z" fill="#414D58"/>
<path d="M65.2223 33.2837L65.2239 33.5002L52.1678 33.5954L52.1662 33.3805C52.1534 31.6491 52.8288 29.9836 54.044 28.7503C55.2592 27.5169 56.9145 26.8168 58.6459 26.804C60.3772 26.7912 62.0427 27.4666 63.2761 28.6818C64.5094 29.897 65.2095 31.5523 65.2223 33.2837Z" fill="#9DA4AA"/>
<path d="M22.464 63.481C22.4655 63.6878 22.4263 63.8929 22.3485 64.0846C22.2707 64.2763 22.156 64.4507 22.0108 64.5981C21.8656 64.7454 21.6928 64.8627 21.5023 64.9432C21.3118 65.0237 21.1073 65.066 20.9005 65.0675L16.1197 65.1019C15.913 65.1036 15.7079 65.0645 15.5163 64.9869C15.3247 64.9093 15.1502 64.7947 15.0029 64.6496C14.8556 64.5046 14.7383 64.3319 14.6577 64.1416C14.5771 63.9512 14.5348 63.7468 14.5332 63.54L14.4938 58.0604L14.4922 57.8028L22.4213 57.7454L22.423 58.0013L22.464 63.481Z" fill="#414D58"/>
<path d="M21.9651 45.649C21.97 46.2948 21.7832 46.9275 21.4285 47.4671C21.0737 48.0067 20.5669 48.429 19.9721 48.6805C19.3773 48.9321 18.7213 49.0016 18.087 48.8802C17.4527 48.7589 16.8686 48.4522 16.4087 47.9989C15.9487 47.5456 15.6335 46.9661 15.503 46.3336C15.3724 45.7012 15.4323 45.0442 15.6752 44.4458C15.918 43.8474 16.3329 43.3345 16.8673 42.9719C17.4016 42.6093 18.0316 42.4133 18.6773 42.4088C19.106 42.4056 19.5311 42.4869 19.9283 42.648C20.3255 42.8092 20.6871 43.047 20.9924 43.3478C21.2977 43.6487 21.5408 44.0068 21.7077 44.4017C21.8746 44.7965 21.9621 45.2204 21.9651 45.649Z" fill="#9DA4AA"/>
<path d="M17.7616 27.8171L14.9676 32.8538L14.9627 32.8521L6.625 32.9243C6.6824 32.0664 6.84551 31.2189 7.11062 30.401C7.60281 28.8851 9.29594 27.8663 11.3746 27.8499C13.4533 27.8335 17.7534 27.8121 17.7534 27.8121L17.7616 27.8171Z" fill="#9DA4AA"/>
<path d="M35.9178 46.9304C35.6147 46.9304 35.3238 46.8105 35.1087 46.5969C34.8935 46.3833 34.7716 46.0933 34.7694 45.7901L34.7481 42.7829C34.747 42.632 34.7756 42.4825 34.8323 42.3427C34.8891 42.203 34.9728 42.0758 35.0786 41.9684C35.1845 41.861 35.3105 41.7755 35.4494 41.7168C35.5884 41.6581 35.7375 41.6273 35.8883 41.6262H35.8967C36.1998 41.6262 36.4907 41.7461 36.7059 41.9597C36.921 42.1733 37.0429 42.4633 37.0451 42.7665L37.0664 45.7737C37.0675 45.9245 37.0389 46.0741 36.9822 46.2138C36.9255 46.3536 36.8418 46.4808 36.7359 46.5882C36.63 46.6956 36.504 46.7811 36.3651 46.8398C36.2262 46.8985 36.077 46.9293 35.9262 46.9304H35.9178Z" fill="#9DA4AA"/>
<path d="M30.3492 46.9714C30.0461 46.9714 29.7553 46.8516 29.5402 46.6381C29.3251 46.4247 29.2031 46.1348 29.2007 45.8318L29.1778 42.8245C29.1766 42.6737 29.2051 42.5241 29.2618 42.3844C29.3184 42.2446 29.402 42.1173 29.5079 42.0099C29.6137 41.9024 29.7396 41.8168 29.8785 41.758C30.0174 41.6992 30.1665 41.6684 30.3173 41.6672H30.3264C30.6294 41.6672 30.9202 41.787 31.1353 42.0005C31.3504 42.2139 31.4725 42.5038 31.4748 42.8068L31.4978 45.8141C31.4989 45.9649 31.4704 46.1145 31.4138 46.2542C31.3571 46.394 31.2735 46.5213 31.1677 46.6288C31.0619 46.7362 30.9359 46.8218 30.797 46.8806C30.6581 46.9394 30.509 46.9702 30.3582 46.9714H30.3492Z" fill="#9DA4AA"/>
<path d="M41.4898 46.8893C41.1867 46.8894 40.896 46.7696 40.6808 46.5561C40.4657 46.3427 40.3437 46.0528 40.3414 45.7498L40.3184 42.7425C40.3172 42.5917 40.3458 42.4421 40.4024 42.3023C40.4591 42.1625 40.5427 42.0352 40.6485 41.9278C40.7544 41.8203 40.8804 41.7347 41.0193 41.676C41.1582 41.6172 41.3073 41.5863 41.4581 41.5852H41.467C41.7701 41.5852 42.0608 41.705 42.2759 41.9184C42.4911 42.1319 42.6131 42.4217 42.6154 42.7248L42.6384 45.732C42.6396 45.8829 42.611 46.0325 42.5544 46.1723C42.4977 46.312 42.4141 46.4393 42.3082 46.5468C42.2024 46.6542 42.0764 46.7398 41.9375 46.7986C41.7986 46.8574 41.6495 46.8882 41.4987 46.8893H41.4898Z" fill="#9DA4AA"/>
<path d="M75.991 49.8704V63.0413C75.991 66.1815 73.891 70.1469 71.2988 71.9138L61.9144 78.3139L52.5301 71.9138C49.9395 70.1469 47.8379 66.1618 47.8379 63.0413V49.8507L61.9144 42.9568L75.991 49.8704Z" fill="#414D58"/>
<path d="M59.9816 65.5334C59.8228 65.5336 59.6657 65.5009 59.5203 65.4372C59.3749 65.3735 59.2443 65.2803 59.1368 65.1635L54.8139 60.4746C54.6074 60.2506 54.4984 59.9538 54.5107 59.6495C54.523 59.3451 54.6558 59.0581 54.8797 58.8517C55.1037 58.6452 55.4004 58.5361 55.7048 58.5484C56.0092 58.5608 56.2961 58.6935 56.5026 58.9174L60.0497 62.765L67.3939 56.0385C67.5048 55.9349 67.6352 55.8544 67.7774 55.8015C67.9196 55.7486 68.0709 55.7244 68.2225 55.7304C68.3742 55.7363 68.5231 55.7722 68.6608 55.8361C68.7984 55.8999 68.9221 55.9904 69.0246 56.1023C69.1271 56.2142 69.2063 56.3453 69.2579 56.488C69.3094 56.6308 69.3321 56.7823 69.3247 56.9338C69.3173 57.0854 69.28 57.234 69.2148 57.371C69.1497 57.5081 69.058 57.6308 68.9451 57.7323L60.7568 65.2315C60.5454 65.4259 60.2687 65.5336 59.9816 65.5334Z" fill="#12293B"/>
</svg>
