<svg width="88" height="93" viewBox="0 0 88 93" fill="none" xmlns="http://www.w3.org/2000/svg">
<path d="M64.7891 7.82812V70.1719H33.6172C33.6172 65.8207 31.8887 61.6477 28.8119 58.5709C25.7351 55.4941 21.5621 53.7656 17.2109 53.7656V37.1822L36.6852 7.82812H64.7891ZM58.2266 44.4272V14.3906H40.8212L23.7734 39.9138V44.4272H58.2266Z" fill="#12293B"/>
<path d="M58.2266 53.9297H46.25C45.9454 53.9297 45.6533 53.8087 45.4379 53.5933C45.2226 53.3779 45.1016 53.0858 45.1016 52.7812C45.1016 52.4767 45.2226 52.1846 45.4379 51.9692C45.6533 51.7538 45.9454 51.6328 46.25 51.6328H58.2266C58.5311 51.6328 58.8233 51.7538 59.0386 51.9692C59.254 52.1846 59.375 52.4767 59.375 52.7812C59.375 53.0858 59.254 53.3779 59.0386 53.5933C58.8233 53.8087 58.5311 53.9297 58.2266 53.9297Z" fill="#9DA4AA"/>
</svg>
