<svg width="88" height="93" viewBox="0 0 88 93" fill="none" xmlns="http://www.w3.org/2000/svg">
<g clip-path="url(#clip0_674:153)">
<path d="M83.3292 30.6529L74.8743 30.7196L72.0723 25.6448L72.0745 25.6426C72.0745 25.6426 76.3776 25.6293 78.4702 25.6137C80.5628 25.5981 82.284 26.6011 82.8022 28.12C83.0809 28.9395 83.2579 29.7902 83.3292 30.6529Z" fill="#9DA4AA"/>
<path d="M81.0969 37.9048L79.2623 52.6264C79.2652 53.4668 78.9358 54.2742 78.346 54.8728C77.7562 55.4714 76.9536 55.8126 76.1133 55.822L75.7731 55.8243L67.7874 55.8821L23.6268 56.2068L15.6411 56.2668L15.2186 56.269C14.3785 56.2731 13.5709 55.9444 12.9725 55.3547C12.3741 54.765 12.0335 53.9624 12.0252 53.1223L10.0549 38.4273C10.0304 35.1517 12.292 32.1695 15.5655 32.1406L15.5499 32.1673L53.5839 31.8871L66.7333 31.7915L75.4173 31.727H75.4284C78.6996 31.7114 81.0724 34.6313 81.0969 37.9048ZM71.3811 46.9579C72.0311 46.953 72.6651 46.7555 73.2029 46.3904C73.7407 46.0252 74.1581 45.5087 74.4024 44.9063C74.6467 44.3039 74.7068 43.6426 74.5753 43.006C74.4437 42.3694 74.1263 41.7861 73.6633 41.3298C73.2002 40.8736 72.6122 40.5649 71.9737 40.4429C71.3352 40.3208 70.6749 40.3908 70.0762 40.644C69.4775 40.8972 68.9673 41.3223 68.6101 41.8655C68.253 42.4087 68.065 43.0455 68.0698 43.6956C68.0765 44.5672 68.4291 45.4005 69.05 46.0123C69.6709 46.624 70.5094 46.9642 71.3811 46.9579ZM19.9042 47.336C20.5542 47.3311 21.1882 47.1336 21.726 46.7684C22.2638 46.4032 22.6812 45.8868 22.9255 45.2844C23.1698 44.682 23.23 44.0206 23.0984 43.384C22.9668 42.7474 22.6494 42.1641 22.1864 41.7079C21.7233 41.2517 21.1353 40.943 20.4968 40.8209C19.8584 40.6988 19.198 40.7688 18.5993 41.0221C18.0006 41.2753 17.4904 41.7004 17.1333 42.2435C16.7761 42.7867 16.5881 43.4236 16.5929 44.0736C16.596 44.5053 16.6842 44.9321 16.8523 45.3296C17.0204 45.7272 17.2652 46.0878 17.5727 46.3907C17.8802 46.6937 18.2444 46.9331 18.6444 47.0953C19.0444 47.2574 19.4725 47.3392 19.9042 47.336Z" fill="#12293B"/>
<path d="M75.817 61.6017C75.8199 62.0218 75.6559 62.4259 75.3611 62.7252C75.0664 63.0246 74.6649 63.1948 74.2448 63.1984L69.428 63.234C69.0076 63.2367 68.6032 63.0724 68.3038 62.7772C68.0044 62.482 67.8345 62.08 67.8313 61.6595L67.7913 56.1422L67.7891 55.882L75.7748 55.8242L75.777 56.0822L75.817 61.6017Z" fill="#F8EC7D"/>
<path d="M15.5663 32.1406L16.1201 31.1399L18.9354 26.0674L21.9242 20.6768C23.5587 17.2388 26.1895 14.3278 29.7476 14.3012L61.3191 14.0677C64.8773 14.0432 67.2011 16.9164 69.147 20.3455L72.0713 25.6448L74.8733 30.7196L75.4293 31.727H75.4181L66.7341 31.7915L66.7319 31.5735C66.7126 29.8342 66.0048 28.1735 64.7636 26.9549C63.5224 25.7363 61.8489 25.0592 60.1096 25.0719C58.3702 25.0845 56.7067 25.7859 55.4834 27.0224C54.26 28.2589 53.5765 29.9298 53.5825 31.6692L53.5847 31.8871L15.5508 32.1673L15.5663 32.1406Z" fill="#414D58"/>
<path d="M74.6438 43.6467C74.6487 44.2967 74.4606 44.9336 74.1035 45.4768C73.7463 46.02 73.2362 46.445 72.6374 46.6983C72.0387 46.9515 71.3784 47.0215 70.7399 46.8994C70.1014 46.7773 69.5134 46.4687 69.0504 46.0124C68.5873 45.5562 68.2699 44.9729 68.1383 44.3363C68.0068 43.6997 68.0669 43.0384 68.3112 42.4359C68.5555 41.8335 68.9729 41.3171 69.5107 40.9519C70.0485 40.5867 70.6825 40.3892 71.3326 40.3844C72.2042 40.3781 73.0427 40.7182 73.6636 41.33C74.2846 41.9417 74.6371 42.7751 74.6438 43.6467Z" fill="#6FE3FF"/>
<path d="M66.7315 31.5735L66.7337 31.7914L53.5843 31.8871L53.5821 31.6691C53.5761 29.9297 54.2596 28.2589 55.483 27.0224C56.7063 25.7858 58.3698 25.0845 60.1092 25.0718C61.8485 25.0592 63.522 25.7363 64.7632 26.9549C66.0044 28.1735 66.7122 29.8342 66.7315 31.5735Z" fill="#9DA4AA"/>
<path d="M23.6728 61.9843C23.6756 62.405 23.5114 62.8096 23.2163 63.1094C22.9211 63.4091 22.519 63.5796 22.0983 63.5832L17.2838 63.6188C16.863 63.622 16.4581 63.4579 16.1583 63.1626C15.8584 62.8674 15.6881 62.4651 15.6848 62.0443L15.6448 56.5248L15.6426 56.2668L23.6283 56.2068L23.6305 56.467L23.6728 61.9843Z" fill="#414D58"/>
<path d="M23.1673 44.0246C23.1721 44.6747 22.984 45.3116 22.6269 45.8547C22.2698 46.3979 21.7596 46.823 21.1609 47.0762C20.5622 47.3294 19.9018 47.3994 19.2633 47.2773C18.6248 47.1553 18.0369 46.8466 17.5738 46.3904C17.1107 45.9341 16.7933 45.3508 16.6618 44.7142C16.5302 44.0776 16.5904 43.4163 16.8347 42.8139C17.0789 42.2115 17.4964 41.695 18.0342 41.3298C18.572 40.9647 19.206 40.7672 19.856 40.7623C20.2876 40.759 20.7157 40.8408 21.1157 41.003C21.5158 41.1652 21.8799 41.4046 22.1874 41.7075C22.4949 42.0105 22.7397 42.371 22.9079 42.7686C23.076 43.1662 23.1641 43.593 23.1673 44.0246Z" fill="#9DA4AA"/>
<path d="M18.9357 26.0673L16.1203 31.1398L16.1159 31.1376L7.71875 31.211C7.77723 30.3469 7.94154 29.4932 8.20799 28.6692C8.7039 27.1436 10.4096 26.1162 12.5022 26.1007C14.5948 26.0851 18.9268 26.0629 18.9268 26.0629L18.9357 26.0673Z" fill="#9DA4AA"/>
<path d="M37.2215 45.717C36.8106 45.717 36.4164 45.5545 36.1248 45.265C35.8332 44.9756 35.6679 44.5825 35.6649 44.1716L35.6426 41.143C35.6397 40.7302 35.8008 40.3331 36.0907 40.039C36.3805 39.745 36.7753 39.5782 37.1882 39.5752C37.601 39.5723 37.9981 39.7335 38.2922 40.0233C38.5862 40.3132 38.753 40.7079 38.7559 41.1208L38.7782 44.1496C38.7797 44.3541 38.7409 44.5568 38.664 44.7462C38.5872 44.9356 38.4738 45.1081 38.3303 45.2537C38.1868 45.3993 38.016 45.5152 37.8277 45.5948C37.6394 45.6744 37.4373 45.7162 37.2329 45.7176L37.2215 45.717Z" fill="#9DA4AA"/>
<path d="M31.6122 45.7571C31.2013 45.7571 30.8071 45.5947 30.5155 45.3052C30.2239 45.0158 30.0585 44.6228 30.0555 44.2119L30.0332 41.1831C30.0317 40.9787 30.0705 40.7759 30.1473 40.5865C30.2241 40.3971 30.3375 40.2246 30.481 40.079C30.6245 39.9333 30.7952 39.8174 30.9835 39.7378C31.1718 39.6581 31.3739 39.6164 31.5784 39.6149H31.5901C32.001 39.6149 32.3952 39.7773 32.6868 40.0667C32.9784 40.3561 33.1438 40.7491 33.1468 41.16L33.1691 44.1888C33.1706 44.3932 33.1318 44.596 33.055 44.7854C32.9782 44.9749 32.8648 45.1473 32.7213 45.293C32.5778 45.4386 32.4071 45.5545 32.2188 45.6341C32.0305 45.7138 31.8284 45.7555 31.6239 45.7571H31.6122Z" fill="#9DA4AA"/>
<path d="M59.6629 45.5503C59.252 45.5503 58.8578 45.3878 58.5662 45.0983C58.2746 44.8089 58.1093 44.4158 58.1063 44.0049L58.084 40.9763C58.0825 40.7719 58.1213 40.5691 58.1981 40.3796C58.275 40.1901 58.3884 40.0177 58.5319 39.872C58.6755 39.7264 58.8463 39.6105 59.0346 39.5309C59.2229 39.4513 59.4251 39.4095 59.6296 39.4081H59.6409C60.0518 39.4081 60.446 39.5705 60.7377 39.86C61.0293 40.1495 61.1946 40.5425 61.1976 40.9534L61.2198 43.9823C61.2213 44.1867 61.1825 44.3894 61.1057 44.5788C61.0288 44.7683 60.9154 44.9407 60.7719 45.0863C60.6284 45.2319 60.4576 45.3478 60.2693 45.4274C60.0811 45.507 59.8789 45.5488 59.6745 45.5503H59.6629Z" fill="#6FE3FF"/>
<path d="M42.8328 45.6747C42.422 45.6747 42.0278 45.5123 41.7362 45.2229C41.4446 44.9335 41.2792 44.5405 41.2762 44.1296L41.2539 41.1008C41.251 40.6879 41.4122 40.2908 41.702 39.9968C41.9919 39.7028 42.3866 39.5359 42.7995 39.533C43.2123 39.53 43.6095 39.6912 43.9035 39.9811C44.1975 40.2709 44.3643 40.6657 44.3673 41.0786L44.3895 44.1074C44.391 44.3118 44.3523 44.5145 44.2755 44.704C44.1986 44.8934 44.0852 45.0659 43.9418 45.2115C43.7983 45.3571 43.6275 45.4731 43.4393 45.5527C43.251 45.6323 43.0488 45.6741 42.8444 45.6756L42.8328 45.6747Z" fill="#9DA4AA"/>
<path d="M48.4422 45.6348C48.0314 45.6348 47.6372 45.4724 47.3456 45.1829C47.054 44.8935 46.8886 44.5005 46.8856 44.0897L46.8633 41.0584C46.8618 40.854 46.9006 40.6512 46.9775 40.4618C47.0543 40.2724 47.1677 40.0999 47.3112 39.9543C47.4547 39.8087 47.6255 39.6928 47.8138 39.6132C48.0021 39.5336 48.2042 39.4918 48.4087 39.4904H48.4202C48.8311 39.4903 49.2254 39.6528 49.517 39.9423C49.8086 40.2318 49.9739 40.6248 49.9769 41.0357L49.9991 44.0668C50.0006 44.2712 49.9618 44.4739 49.885 44.6633C49.8081 44.8528 49.6947 45.0252 49.5512 45.1708C49.4077 45.3164 49.237 45.4323 49.0487 45.5119C48.8604 45.5916 48.6582 45.6333 48.4538 45.6348H48.4422Z" fill="#9DA4AA"/>
<path d="M54.0516 45.5925C53.6407 45.5925 53.2465 45.4301 52.9549 45.1406C52.6633 44.8511 52.4979 44.4581 52.4949 44.0472L52.4727 41.0183C52.4712 40.8139 52.51 40.6112 52.5868 40.4217C52.6637 40.2323 52.7771 40.0599 52.9206 39.9143C53.0641 39.7687 53.2349 39.6527 53.4232 39.5731C53.6115 39.4935 53.8136 39.4518 54.018 39.4503H54.0296C54.4405 39.4503 54.8347 39.6128 55.1263 39.9022C55.418 40.1917 55.5833 40.5848 55.5863 40.9956L55.6085 44.0245C55.61 44.2289 55.5712 44.4317 55.4943 44.6211C55.4175 44.8106 55.304 44.983 55.1605 45.1286C55.017 45.2742 54.8462 45.3901 54.6579 45.4697C54.4696 45.5493 54.2674 45.591 54.063 45.5925H54.0516Z" fill="#6FE3FF"/>
<path d="M83.2944 57.9059H66.2377C66.2377 57.0246 65.8876 56.1794 65.2644 55.5562C64.6413 54.9331 63.7961 54.583 62.9148 54.583C62.0335 54.583 61.1883 54.9331 60.5652 55.5562C59.942 56.1794 59.5919 57.0246 59.5919 57.9059H42.5352C42.5352 46.6502 51.6591 37.5262 62.9148 37.5262C74.1705 37.5262 83.2944 46.6502 83.2944 57.9059ZM64.3414 52.4034L62.9148 44.1496L61.4882 52.4034H64.3414Z" fill="#9DA4AA"/>
<path d="M62.9149 44.1497L64.3414 52.4034H61.4883L62.9149 44.1497Z" fill="#12293B"/>
<path d="M62.9131 34.5713C49.969 34.5713 39.4766 45.0637 39.4766 58.0079C39.4766 70.952 49.969 81.4445 62.9131 81.4445C75.8573 81.4445 86.3497 70.952 86.3497 58.0079C86.3497 45.0637 75.8573 34.5713 62.9131 34.5713ZM62.9131 38.2396C73.5183 38.2396 82.1897 46.678 82.5668 57.1927H66.8863C66.7189 56.2608 66.2292 55.4174 65.5029 54.8099C64.7767 54.2025 63.86 53.8696 62.9131 53.8696C61.9663 53.8696 61.0496 54.2025 60.3233 54.8099C59.5971 55.4174 59.1074 56.2608 58.94 57.1927H43.2595C43.6366 46.678 52.308 38.2396 62.9131 38.2396Z" fill="#414D58"/>
<path d="M63.0356 40.787C62.8464 40.787 62.665 40.7119 62.5312 40.5781C62.3974 40.4444 62.3223 40.2629 62.3223 40.0738V37.6282C62.3223 37.439 62.3974 37.2576 62.5312 37.1238C62.665 36.9901 62.8464 36.9149 63.0356 36.9149C63.2247 36.9149 63.4062 36.9901 63.5399 37.1238C63.6737 37.2576 63.7488 37.439 63.7488 37.6282V40.0738C63.7488 40.2629 63.6737 40.4444 63.5399 40.5781C63.4062 40.7119 63.2247 40.787 63.0356 40.787Z" fill="#12293B"/>
<path d="M46.1349 53.5999C46.0781 53.5999 46.0215 53.593 45.9664 53.5795L43.5901 53.0038C43.4991 52.9817 43.4133 52.9419 43.3376 52.8867C43.262 52.8315 43.1979 52.7619 43.1492 52.6819C43.1004 52.6019 43.0679 52.5131 43.0534 52.4205C43.039 52.328 43.0429 52.2335 43.065 52.1425C43.0871 52.0514 43.1269 51.9656 43.1821 51.89C43.2374 51.8143 43.307 51.7503 43.3869 51.7015C43.4669 51.6528 43.5557 51.6203 43.6483 51.6058C43.7408 51.5914 43.8353 51.5953 43.9264 51.6174L46.3027 52.1932C46.472 52.2346 46.6203 52.3365 46.7196 52.4796C46.8189 52.6228 46.8623 52.7974 46.8417 52.9704C46.8211 53.1435 46.7379 53.303 46.6078 53.4189C46.4776 53.5347 46.3096 53.5989 46.1353 53.5994L46.1349 53.5999Z" fill="#12293B"/>
<path d="M48.5793 48.563C48.4442 48.563 48.3118 48.5244 48.1978 48.4518L46.1334 47.1414C45.9765 47.0388 45.8663 46.8785 45.8267 46.6953C45.787 46.5121 45.8211 46.3206 45.9216 46.1623C46.022 46.004 46.1807 45.8916 46.3634 45.8495C46.546 45.8073 46.7379 45.8387 46.8976 45.937L48.9621 47.2473C49.0926 47.33 49.1928 47.453 49.2474 47.5976C49.302 47.7422 49.3082 47.9006 49.265 48.049C49.2218 48.1974 49.1316 48.3278 49.0079 48.4205C48.8842 48.5132 48.7337 48.5632 48.5791 48.563H48.5793Z" fill="#12293B"/>
<path d="M52.5353 44.4839C52.4286 44.4841 52.3232 44.4603 52.2269 44.4142C52.1306 44.3681 52.0459 44.3009 51.9791 44.2177L50.4465 42.3122C50.328 42.1648 50.2728 41.9763 50.2932 41.7882C50.3136 41.6001 50.4079 41.4279 50.5553 41.3093C50.7028 41.1908 50.8912 41.1356 51.0793 41.156C51.2674 41.1764 51.4397 41.2707 51.5582 41.4181L53.0908 43.3236C53.175 43.4284 53.2279 43.5549 53.2434 43.6885C53.2589 43.8221 53.2363 43.9573 53.1782 44.0786C53.1202 44.1998 53.029 44.3022 52.9152 44.374C52.8015 44.4457 52.6698 44.4838 52.5353 44.4838V44.4839Z" fill="#12293B"/>
<path d="M57.3018 41.798C57.1554 41.798 57.0126 41.7529 56.8927 41.6689C56.7727 41.5849 56.6816 41.4661 56.6316 41.3285L55.795 39.0308C55.7303 38.853 55.7388 38.6567 55.8188 38.4853C55.8988 38.3138 56.0436 38.1811 56.2214 38.1164C56.3992 38.0517 56.5954 38.0602 56.7669 38.1402C56.9383 38.2202 57.071 38.365 57.1358 38.5428L57.9723 40.8405C58.0115 40.9483 58.0241 41.0639 58.0091 41.1776C57.9942 41.2913 57.952 41.3997 57.8863 41.4937C57.8205 41.5877 57.7331 41.6644 57.6314 41.7174C57.5297 41.7704 57.4167 41.7982 57.302 41.7983L57.3018 41.798Z" fill="#12293B"/>
<path d="M79.6939 53.5999C79.5196 53.5995 79.3515 53.5352 79.2214 53.4194C79.0913 53.3035 79.008 53.144 78.9874 52.9709C78.9668 52.7979 79.0103 52.6233 79.1096 52.4801C79.2089 52.3369 79.3572 52.2351 79.5264 52.1937L81.9028 51.6179C81.9938 51.5958 82.0883 51.5919 82.1809 51.6063C82.2734 51.6207 82.3622 51.6533 82.4422 51.702C82.5222 51.7508 82.5918 51.8148 82.647 51.8905C82.7023 51.9661 82.7421 52.0519 82.7641 52.143C82.7862 52.234 82.7902 52.3285 82.7757 52.421C82.7613 52.5136 82.7288 52.6024 82.68 52.6824C82.6312 52.7624 82.5672 52.832 82.4915 52.8872C82.4159 52.9424 82.3301 52.9822 82.2391 53.0043L79.8628 53.58C79.8075 53.5934 79.7508 53.6001 79.6939 53.5999Z" fill="#12293B"/>
<path d="M77.5541 48.563C77.3996 48.5632 77.2491 48.5132 77.1254 48.4205C77.0017 48.3278 76.9115 48.1974 76.8683 48.049C76.8251 47.9006 76.8313 47.7422 76.8859 47.5976C76.9405 47.453 77.0407 47.33 77.1712 47.2473L79.2357 45.937C79.3953 45.8387 79.5872 45.8073 79.7699 45.8495C79.9526 45.8916 80.1113 46.004 80.2117 46.1623C80.3121 46.3206 80.3462 46.5121 80.3066 46.6953C80.267 46.8785 80.1568 47.0388 79.9999 47.1414L77.9354 48.4518C77.8215 48.5244 77.6892 48.5629 77.5541 48.563Z" fill="#12293B"/>
<path d="M73.7011 44.484C73.5666 44.4839 73.4349 44.4458 73.3212 44.3741C73.2074 44.3024 73.1163 44.2 73.0582 44.0787C73.0001 43.9574 72.9775 43.8222 72.993 43.6886C73.0085 43.555 73.0614 43.4286 73.1457 43.3238L74.6782 41.4183C74.7968 41.2708 74.969 41.1766 75.1571 41.1561C75.3452 41.1357 75.5337 41.1909 75.6811 41.3094C75.8285 41.428 75.9228 41.6003 75.9432 41.7883C75.9636 41.9764 75.9085 42.1649 75.7899 42.3123L74.2574 44.2178C74.1905 44.301 74.1058 44.3682 74.0096 44.4143C73.9133 44.4603 73.8078 44.4842 73.7011 44.484Z" fill="#12293B"/>
<path d="M68.8324 42.0018C68.7177 42.0017 68.6047 41.974 68.503 41.9209C68.4013 41.8679 68.3139 41.7912 68.2482 41.6972C68.1824 41.6032 68.1402 41.4948 68.1253 41.3811C68.1103 41.2674 68.1229 41.1518 68.1621 41.044L68.9987 38.7463C69.0307 38.6583 69.0798 38.5774 69.143 38.5084C69.2063 38.4393 69.2826 38.3834 69.3675 38.3438C69.4524 38.3042 69.5443 38.2817 69.6379 38.2777C69.7314 38.2736 69.8249 38.288 69.9129 38.32C70.001 38.352 70.0818 38.4011 70.1509 38.4644C70.2199 38.5277 70.2759 38.604 70.3154 38.6889C70.355 38.7738 70.3775 38.8656 70.3816 38.9592C70.3857 39.0528 70.3713 39.1463 70.3392 39.2343L69.5026 41.532C69.4527 41.6696 69.3615 41.7886 69.2416 41.8726C69.1217 41.9567 68.9788 42.0018 68.8324 42.0018Z" fill="#12293B"/>
<path d="M62.9132 60.8609C63.7574 60.8609 64.4417 60.1766 64.4417 59.3324C64.4417 58.4883 63.7574 57.804 62.9132 57.804C62.0691 57.804 61.3848 58.4883 61.3848 59.3324C61.3848 60.1766 62.0691 60.8609 62.9132 60.8609Z" fill="#12293B"/>
</g>
<defs>
<clipPath id="clip0_674:153">
<rect width="88" height="93" fill="white"/>
</clipPath>
</defs>
</svg>
