<svg width="88" height="93" viewBox="0 0 88 93" fill="none" xmlns="http://www.w3.org/2000/svg">
<path d="M44 76.7813C43.6954 76.7813 43.4033 76.6603 43.1879 76.4449C42.9726 76.2296 42.8516 75.9375 42.8516 75.6329V61.5629C42.8516 61.2583 42.9726 60.9662 43.1879 60.7508C43.4033 60.5354 43.6954 60.4144 44 60.4144C44.3046 60.4144 44.5967 60.5354 44.8121 60.7508C45.0274 60.9662 45.1484 61.2583 45.1484 61.5629V75.6329C45.1484 75.9375 45.0274 76.2296 44.8121 76.4449C44.5967 76.6603 44.3046 76.7813 44 76.7813Z" fill="#414D58"/>
<path d="M77.9325 49.2056V55.0002C77.9325 56.7407 77.2411 58.4099 76.0104 59.6406C74.7797 60.8713 73.1105 61.5627 71.37 61.5627H16.6289C14.8884 61.5627 13.2192 60.8713 11.9885 59.6406C10.7578 58.4099 10.0664 56.7407 10.0664 55.0002V49.2056H77.9325Z" fill="#414D58"/>
<path d="M77.9325 14.9297V49.2056H10.0664V14.9297C10.0664 13.1892 10.7578 11.52 11.9885 10.2893C13.2192 9.05859 14.8884 8.36719 16.6289 8.36719H71.37C73.1105 8.36719 74.7797 9.05859 76.0104 10.2893C77.2411 11.52 77.9325 13.1892 77.9325 14.9297Z" fill="#12293B"/>
<path d="M48.0809 37.6114V40.2872C48.0809 40.4911 48.0001 40.6866 47.8562 40.8308C47.7122 40.9751 47.5169 41.0563 47.313 41.0567H44.9768C44.773 41.0563 44.5776 40.9751 44.4337 40.8308C44.2897 40.6866 44.2089 40.4911 44.209 40.2872V37.4867H48.0809V37.6114Z" fill="#9DA4AA"/>
<path d="M18.9675 25.7857L22.0929 20.2486C22.8984 18.5883 24.183 17.1855 25.909 17.1855H41.2209C42.9452 17.1855 44.0625 18.5883 44.9944 20.2584L48 25.7988H43.7836V25.6938C43.7836 24.8482 43.4477 24.0372 42.8497 23.4392C42.2517 22.8412 41.4407 22.5053 40.595 22.5053C39.7494 22.5053 38.9384 22.8412 38.3404 23.4392C37.7424 24.0372 37.4065 24.8482 37.4065 25.6938V25.7988H18.9609L18.9675 25.7857Z" fill="#9DA4AA"/>
<path d="M43.7834 25.6938V25.7988H37.4062V25.6938C37.4062 24.8481 37.7422 24.0371 38.3402 23.4392C38.9381 22.8412 39.7491 22.5052 40.5948 22.5052C41.4405 22.5052 42.2515 22.8412 42.8495 23.4392C43.4474 24.0371 43.7834 24.8481 43.7834 25.6938Z" fill="#12293B"/>
<path d="M22.7918 37.6114V40.2872C22.7919 40.4911 22.7111 40.6866 22.5671 40.8308C22.4231 40.9751 22.2278 41.0563 22.024 41.0567H19.6877C19.4839 41.0563 19.2886 40.9751 19.1446 40.8308C19.0006 40.6866 18.9198 40.4911 18.9199 40.2872V37.4867H22.7918V37.6114Z" fill="#9DA4AA"/>
<path d="M58.3405 76.7812H30.4434C30.1388 76.7812 29.8467 76.6603 29.6313 76.4449C29.4159 76.2295 29.2949 75.9374 29.2949 75.6328C29.2949 75.3282 29.4159 75.0361 29.6313 74.8207C29.8467 74.6054 30.1388 74.4844 30.4434 74.4844H58.3405C58.6451 74.4844 58.9372 74.6054 59.1526 74.8207C59.368 75.0361 59.489 75.3282 59.489 75.6328C59.489 75.9374 59.368 76.2295 59.1526 76.4449C58.9372 76.6603 58.6451 76.7812 58.3405 76.7812Z" fill="#12293B"/>
<path d="M71.7266 22.7227H59.75C59.4454 22.7227 59.1533 22.6017 58.9379 22.3863C58.7226 22.1709 58.6016 21.8788 58.6016 21.5742C58.6016 21.2696 58.7226 20.9775 58.9379 20.7622C59.1533 20.5468 59.4454 20.4258 59.75 20.4258H71.7266C72.0311 20.4258 72.3233 20.5468 72.5386 20.7622C72.754 20.9775 72.875 21.2696 72.875 21.5742C72.875 21.8788 72.754 22.1709 72.5386 22.3863C72.3233 22.6017 72.0311 22.7227 71.7266 22.7227Z" fill="#414D58"/>
<path d="M71.7266 27.6445H59.75C59.4454 27.6445 59.1533 27.5235 58.9379 27.3082C58.7226 27.0928 58.6016 26.8007 58.6016 26.4961C58.6016 26.1915 58.7226 25.8994 58.9379 25.684C59.1533 25.4687 59.4454 25.3477 59.75 25.3477H71.7266C72.0311 25.3477 72.3233 25.4687 72.5386 25.684C72.754 25.8994 72.875 26.1915 72.875 26.4961C72.875 26.8007 72.754 27.0928 72.5386 27.3082C72.3233 27.5235 72.0311 27.6445 71.7266 27.6445Z" fill="#414D58"/>
<path d="M71.7266 32.5664H59.75C59.4454 32.5664 59.1533 32.4454 58.9379 32.23C58.7226 32.0147 58.6016 31.7226 58.6016 31.418C58.6016 31.1134 58.7226 30.8213 58.9379 30.6059C59.1533 30.3905 59.4454 30.2695 59.75 30.2695H71.7266C72.0311 30.2695 72.3233 30.3905 72.5386 30.6059C72.754 30.8213 72.875 31.1134 72.875 31.418C72.875 31.7226 72.754 32.0147 72.5386 32.23C72.3233 32.4454 72.0311 32.5664 71.7266 32.5664Z" fill="#414D58"/>
<path d="M71.7266 37.4883H59.75C59.4454 37.4883 59.1533 37.3673 58.9379 37.1519C58.7226 36.9365 58.6016 36.6444 58.6016 36.3398C58.6016 36.0353 58.7226 35.7431 58.9379 35.5278C59.1533 35.3124 59.4454 35.1914 59.75 35.1914H71.7266C72.0311 35.1914 72.3233 35.3124 72.5386 35.5278C72.754 35.7431 72.875 36.0353 72.875 36.3398C72.875 36.6444 72.754 36.9365 72.5386 37.1519C72.3233 37.3673 72.0311 37.4883 71.7266 37.4883Z" fill="#414D58"/>
<path d="M50.7266 28.8142L49.7832 35.9477C49.7823 36.3553 49.6202 36.7459 49.3321 37.0343C49.044 37.3227 48.6535 37.4853 48.2459 37.4866H18.7147C18.3069 37.4855 17.9161 37.323 17.6278 37.0346C17.3394 36.7462 17.1769 36.3555 17.1758 35.9477L16.2734 28.8142C16.2734 27.2261 17.3809 25.7889 18.9673 25.7856L18.9608 25.7988H47.9949V25.8004C49.5847 25.8004 50.7266 27.2245 50.7266 28.8142ZM47.342 32.2382C47.342 31.8394 47.2237 31.4496 47.0021 31.118C46.7806 30.7864 46.4657 30.528 46.0972 30.3754C45.7288 30.2228 45.3234 30.1828 44.9323 30.2606C44.5411 30.3384 44.1819 30.5305 43.8999 30.8125C43.6179 31.0945 43.4258 31.4537 43.348 31.8449C43.2702 32.236 43.3102 32.6414 43.4628 33.0098C43.6154 33.3783 43.8738 33.6932 44.2054 33.9147C44.537 34.1363 44.9268 34.2545 45.3256 34.2545C45.8603 34.2541 46.3729 34.0415 46.7509 33.6635C47.1289 33.2855 47.3415 32.7729 47.342 32.2382ZM23.6907 32.2382C23.6907 31.8394 23.5724 31.4496 23.3509 31.118C23.1293 30.7864 22.8144 30.528 22.446 30.3754C22.0776 30.2228 21.6721 30.1828 21.281 30.2606C20.8899 30.3384 20.5306 30.5305 20.2486 30.8125C19.9666 31.0945 19.7746 31.4537 19.6968 31.8449C19.619 32.236 19.6589 32.6414 19.8115 33.0098C19.9641 33.3783 20.2226 33.6932 20.5542 33.9147C20.8857 34.1363 21.2756 34.2545 21.6744 34.2545C22.209 34.2541 22.7216 34.0415 23.0997 33.6635C23.4777 33.2855 23.6903 32.7729 23.6907 32.2382Z" fill="#414D58"/>
<path d="M45.3269 30.2203C45.7261 30.22 46.1164 30.3381 46.4484 30.5596C46.7805 30.7812 47.0394 31.0962 47.1924 31.4649C47.3454 31.8336 47.3856 32.2394 47.3079 32.631C47.2302 33.0225 47.0382 33.3823 46.756 33.6646C46.4739 33.947 46.1143 34.1394 45.7228 34.2174C45.3313 34.2954 44.9255 34.2555 44.5567 34.1028C44.1878 33.9501 43.8726 33.6915 43.6508 33.3596C43.4289 33.0277 43.3105 32.6375 43.3105 32.2383C43.3105 31.7034 43.5229 31.1904 43.901 30.812C44.2791 30.4336 44.792 30.2208 45.3269 30.2203Z" fill="#9DA4AA"/>
<path d="M21.6745 30.2203C22.0737 30.22 22.464 30.3381 22.7961 30.5596C23.1282 30.7812 23.3871 31.0962 23.5401 31.4649C23.693 31.8336 23.7332 32.2394 23.6556 32.631C23.5779 33.0225 23.3858 33.3823 23.1037 33.6646C22.8215 33.947 22.462 34.1394 22.0705 34.2174C21.679 34.2954 21.2731 34.2555 20.9043 34.1028C20.5355 33.9501 20.2202 33.6915 19.9984 33.3596C19.7766 33.0277 19.6582 32.6375 19.6582 32.2383C19.6582 31.7034 19.8706 31.1904 20.2487 30.812C20.6268 30.4336 21.1396 30.2208 21.6745 30.2203Z" fill="#9DA4AA"/>
<path d="M38.9379 34.2136H28.0605C27.756 34.2136 27.4639 34.0926 27.2485 33.8773C27.0331 33.6619 26.9121 33.3698 26.9121 33.0652C26.9121 32.7606 27.0331 32.4685 27.2485 32.2531C27.4639 32.0377 27.756 31.9167 28.0605 31.9167H38.9379C39.2425 31.9167 39.5346 32.0377 39.75 32.2531C39.9653 32.4685 40.0863 32.7606 40.0863 33.0652C40.0863 33.3698 39.9653 33.6619 39.75 33.8773C39.5346 34.0926 39.2425 34.2136 38.9379 34.2136Z" fill="#9DA4AA"/>
</svg>
