<svg width="34" height="34" viewBox="0 0 34 34" fill="none" xmlns="http://www.w3.org/2000/svg">
<path d="M30.2754 5.60156H4.72461C3.21923 5.60156 2 6.82836 2 8.32617V24.6738C2 26.1805 3.22819 27.3984 4.72461 27.3984H30.2754C31.7682 27.3984 33 26.1857 33 24.6738V8.32617C33 6.83103 31.7856 5.60156 30.2754 5.60156ZM29.8938 7.41797C29.3372 7.97167 19.7574 17.501 19.4266 17.83C18.912 18.3447 18.2278 18.628 17.5 18.628C16.7722 18.628 16.088 18.3446 15.5717 17.8283C15.3493 17.607 5.87518 8.18292 5.10618 7.41797H29.8938ZM3.81641 24.3041V8.69702L11.6656 16.5048L3.81641 24.3041ZM5.10733 25.582L12.9534 17.7858L14.289 19.1144C15.1467 19.9721 16.2871 20.4444 17.5 20.4444C18.7129 20.4444 19.8533 19.9721 20.7093 19.1161L22.0466 17.7858L29.8927 25.582H5.10733ZM31.1836 24.3041L23.3344 16.5048L31.1836 8.69702V24.3041Z" fill="#414D58"/>
</svg>
