<svg width="22" height="22" viewBox="0 0 22 22" fill="none" xmlns="http://www.w3.org/2000/svg">
<g clip-path="url(#clip0_1754:50)">
<path d="M11.2378 3.15881L12.5318 7.14159C12.7661 7.86263 13.4381 8.35081 14.1962 8.35081H18.3839C18.6261 8.35081 18.7268 8.66071 18.5309 8.80307L15.1429 11.2646C14.5296 11.7102 14.2729 12.5001 14.5072 13.2211L15.8013 17.2039C15.8761 17.4342 15.6125 17.6258 15.4166 17.4834L12.0286 15.0219C11.4153 14.5763 10.5847 14.5763 9.97138 15.0219L6.58342 17.4834C6.3875 17.6258 6.12387 17.4342 6.19871 17.2039L7.49279 13.2211C7.72707 12.5001 7.47042 11.7102 6.85707 11.2646L3.46911 8.80307C3.27319 8.66072 3.37388 8.35081 3.61606 8.35081H7.8038C8.56195 8.35081 9.23387 7.86263 9.46815 7.14159L10.7622 3.15881C10.8371 2.92849 11.1629 2.92848 11.2378 3.15881Z" fill="#134A7D" stroke="#134A7D" stroke-width="1.5"/>
</g>
<g clip-path="url(#clip1_1754:50)">
<path d="M11.2378 3.15881L12.5318 7.14159C12.7661 7.86263 13.4381 8.35081 14.1962 8.35081H18.3839C18.6261 8.35081 18.7268 8.66071 18.5309 8.80307L15.1429 11.2646C14.5296 11.7102 14.2729 12.5001 14.5072 13.2211L15.8013 17.2039C15.8761 17.4342 15.6125 17.6258 15.4166 17.4834L12.0286 15.0219C11.4153 14.5763 10.5847 14.5763 9.97138 15.0219L6.58342 17.4834C6.3875 17.6258 6.12387 17.4342 6.19871 17.2039L7.49279 13.2211C7.72707 12.5001 7.47042 11.7102 6.85707 11.2646L3.46911 8.80307C3.27319 8.66072 3.37388 8.35081 3.61606 8.35081H7.8038C8.56195 8.35081 9.23387 7.86263 9.46815 7.14159L10.7622 3.15881C10.8371 2.92849 11.1629 2.92848 11.2378 3.15881Z" stroke="#134A7D" stroke-width="1.5"/>
</g>
<defs>
<clipPath id="clip0_1754:50">
<rect width="11" height="22" fill="white"/>
</clipPath>
<clipPath id="clip1_1754:50">
<rect width="11" height="22" fill="white" transform="translate(11)"/>
</clipPath>
</defs>
</svg>
