<svg width="330" height="934" viewBox="0 0 330 934" fill="none" xmlns="http://www.w3.org/2000/svg">
<path fill-rule="evenodd" clip-rule="evenodd" d="M257.162 615.6L264.814 621.522C305.198 652.779 326.937 701.248 326.696 761.104C326.297 860.062 259.067 934.037 162.999 933.65C66.9306 933.262 0.299311 858.748 0.698252 759.79C0.914611 706.122 18.7268 661.75 51.698 630.854L7.88888 630.678L9.0532 341.867L106.185 342.259L105.84 427.817L321.366 428.686L320.891 546.38L105.366 545.511L105.021 631.069L85.677 630.991L140.352 692.814L131.625 699.646C111.69 715.252 101.276 732.886 101.186 755.186C101.113 773.134 107.214 787.403 117.508 797.236C127.851 807.116 143.329 813.37 163.483 813.451C183.637 813.532 199.166 807.404 209.588 797.607C219.96 787.857 226.176 773.638 226.249 755.691C226.338 733.39 216.066 715.673 196.258 699.907L187.586 693.005L257.162 615.6ZM70.0112 629.017C69.1889 629.643 68.3746 630.277 67.5683 630.918C31.4674 659.635 11.3456 703.903 11.1202 759.832C10.7416 853.737 73.4123 922.854 163.041 923.216C252.669 923.577 315.895 854.967 316.274 761.062C316.504 703.884 295.842 658.726 258.439 629.777L202.744 691.739C205.529 693.956 208.162 696.228 210.634 698.559C227.347 714.319 236.763 732.828 236.67 755.733C236.506 796.634 208.047 824.065 163.441 823.885C118.835 823.705 90.5988 796.045 90.7637 755.144C90.8561 732.24 100.421 713.808 117.26 698.183C119.751 695.871 122.402 693.621 125.205 691.427L70.0112 629.017ZM94.6413 620.593L94.9862 535.035L310.511 535.904L310.902 439.078L95.3765 438.209L95.7214 352.651L19.433 352.343L18.3529 620.286L94.6413 620.593ZM166.76 0.657111C261.641 1.03962 329.456 76.462 329.052 176.604C328.648 276.745 260.228 351.619 165.347 351.236C70.4655 350.854 2.6509 275.431 3.05462 175.289C3.45833 75.1478 71.8788 0.274605 166.76 0.657111ZM212.268 214.917C222.664 205.193 228.523 191.635 228.585 176.199C228.647 160.763 222.897 147.158 212.58 137.35C202.258 127.537 186.724 120.938 166.275 120.856C145.827 120.773 130.24 127.247 119.839 136.976C109.443 146.7 103.584 160.259 103.522 175.694C103.46 191.13 109.209 204.735 119.526 214.543C129.849 224.356 145.383 230.955 165.831 231.038C186.28 231.12 201.866 224.646 212.268 214.917ZM166.718 11.091C255.096 11.4473 319.014 81.4045 318.63 176.562C318.246 271.719 253.766 341.158 165.389 340.802C77.0109 340.446 13.0929 270.489 13.4765 175.331C13.8601 80.1743 78.3401 10.7347 166.718 11.091ZM165.789 241.471C211.229 241.655 238.86 212.551 239.007 176.241C239.153 139.931 211.757 110.605 166.317 110.422C120.878 110.239 93.2463 139.343 93.0999 175.652C92.9535 211.962 120.35 241.288 165.789 241.471Z" fill="white" fill-opacity="0.05"/>
</svg>
