<svg width="34" height="34" viewBox="0 0 34 34" fill="none" xmlns="http://www.w3.org/2000/svg">
<path d="M32.3333 8.01329L32.3344 8.01747C32.6668 9.24142 32.8398 11.2097 32.924 12.9461C32.9654 13.7988 32.9843 14.5701 32.993 15.1283C32.9973 15.4071 32.999 15.6322 32.9996 15.7869C33 15.8643 33 15.9241 33 15.9641L32.9999 16.0092L32.9999 16.0202L32.9999 16.0227L32.9999 16.0232V16.0282V16.0288L32.9999 16.0313L32.9998 16.0423L32.9997 16.0872C32.9996 16.1064 32.9995 16.13 32.9993 16.1579C32.9991 16.1883 32.9989 16.2236 32.9985 16.2638C32.9972 16.418 32.9945 16.6421 32.9891 16.9198C32.9783 17.4757 32.9567 18.2441 32.9136 19.094C32.826 20.8215 32.6536 22.7867 32.3329 24.0173C32.0315 25.1422 31.1511 26.0266 30.0438 26.3281C29.4809 26.477 28.407 26.605 27.0297 26.7047C25.678 26.8026 24.1142 26.8682 22.6242 26.9122C21.1358 26.9561 19.729 26.978 18.6938 26.989C18.1763 26.9945 17.7522 26.9973 17.4578 26.9986C17.3105 26.9993 17.1957 26.9997 17.1179 26.9998L17.0295 27L17.0071 27L17.0016 27H17.0003H17L16.9999 28L16.9999 27H16.9996H16.9983L16.9928 27L16.9705 27L16.8824 26.9998C16.8048 26.9996 16.6903 26.9993 16.5434 26.9986C16.2497 26.9972 15.8267 26.9943 15.3105 26.9886C14.2776 26.9772 12.8736 26.9543 11.3873 26.9087C9.89928 26.863 8.33689 26.7948 6.98467 26.6931C5.60458 26.5894 4.52758 26.4561 3.96036 26.3012L3.95894 26.3009C2.84991 25.9998 1.96809 25.1143 1.66664 23.988C1.34653 22.7734 1.17392 20.8092 1.08624 19.0765C1.04314 18.2247 1.02155 17.4538 1.01075 16.8956C1.00536 16.6168 1.00267 16.3916 1.00133 16.2367C1.00066 16.1593 1.00033 16.0995 1.00016 16.0593L1.00002 16.0141L1 16.0031L1 16.0005L1 16.0001V16V16V15.9999L1 15.9995L1 15.997L1.00002 15.986L1.00016 15.941C1.00033 15.9011 1.00066 15.8415 1.00133 15.7644C1.00267 15.6103 1.00536 15.3861 1.01075 15.1084C1.02154 14.5525 1.04313 13.7841 1.08623 12.9341C1.17384 11.2065 1.3463 9.24119 1.66697 8.01075C1.96882 6.88391 2.87922 5.97188 3.95831 5.67129C4.52191 5.52266 5.59469 5.39481 6.96993 5.29528C8.32156 5.19745 9.88539 5.13176 11.3754 5.08783C12.8638 5.04394 14.2706 5.02197 15.3058 5.01098C15.8233 5.00548 16.2474 5.00274 16.5418 5.00137C16.6891 5.00068 16.8039 5.00034 16.8817 5.00017L16.9701 5.00002L16.9925 5L16.998 5L16.9993 5H16.9996L16.9997 4L16.9997 5H17L17.0013 5L17.0068 5L17.0292 5.00002L17.1176 5.00018C17.1954 5.00035 17.3101 5.00071 17.4573 5.00142C17.7517 5.00285 18.1758 5.0057 18.6931 5.01141C19.7282 5.02283 21.1348 5.04567 22.6229 5.09129C24.1127 5.13696 25.6759 5.20522 27.0268 5.30687C28.4064 5.41068 29.4782 5.54391 30.0369 5.69807L30.0409 5.69914C31.1503 6.00038 32.0325 6.88636 32.3333 8.01329Z" fill="white" stroke="#414D58" stroke-width="2"/>
<path d="M13.6113 21.0001L22.4613 15.9029L13.6113 10.8057V21.0001Z" fill="#414D58"/>
</svg>
