<svg width="46" height="46" viewBox="0 0 46 46" fill="none" xmlns="http://www.w3.org/2000/svg">
<path d="M20 28L27 23L20 18" stroke="currentColor" stroke-width="3" stroke-linecap="round" stroke-linejoin="round"/>
<path d="M46 23C46 35.7025 35.7025 46 23 46C10.2975 46 0 35.7025 0 23C0 10.2975 10.2975 0 23 0C35.7025 0 46 10.2975 46 23ZM2.31079 23C2.31079 34.4263 11.5737 43.6892 23 43.6892C34.4263 43.6892 43.6892 34.4263 43.6892 23C43.6892 11.5737 34.4263 2.31079 23 2.31079C11.5737 2.31079 2.31079 11.5737 2.31079 23Z" fill="#414D58"/>
</svg>
