<svg width="31" height="22" viewBox="0 0 31 22" fill="none" xmlns="http://www.w3.org/2000/svg">
<rect width="31" height="22" rx="2" fill="white"/>
<mask id="mask0" style="mask-type:alpha" maskUnits="userSpaceOnUse" x="0" y="0" width="31" height="22">
<rect width="31" height="22" rx="2" fill="white"/>
</mask>
<g mask="url(#mask0)">
<path fill-rule="evenodd" clip-rule="evenodd" d="M31 0H0V1.46667H31V0ZM31 2.93333H0V4.4H31V2.93333ZM0 5.86667H31V7.33333H0V5.86667ZM31 8.8H0V10.2667H31V8.8ZM0 11.7333H31V13.2H0V11.7333ZM31 14.6667H0V16.1333H31V14.6667ZM0 17.6H31V19.0667H0V17.6ZM31 20.5333H0V22H31V20.5333Z" fill="#D02F44"/>
<rect width="13.2857" height="10.2667" fill="#46467F"/>
<g filter="url(#filter0_d)">
<path fill-rule="evenodd" clip-rule="evenodd" d="M2.95275 2.19989C2.95275 2.60489 2.6223 2.93322 2.21466 2.93322C1.80702 2.93322 1.47656 2.60489 1.47656 2.19989C1.47656 1.79488 1.80702 1.46655 2.21466 1.46655C2.6223 1.46655 2.95275 1.79488 2.95275 2.19989ZM5.90513 2.19989C5.90513 2.60489 5.57468 2.93322 5.16704 2.93322C4.7594 2.93322 4.42894 2.60489 4.42894 2.19989C4.42894 1.79488 4.7594 1.46655 5.16704 1.46655C5.57468 1.46655 5.90513 1.79488 5.90513 2.19989ZM8.11942 2.93322C8.52706 2.93322 8.85752 2.60489 8.85752 2.19989C8.85752 1.79488 8.52706 1.46655 8.11942 1.46655C7.71178 1.46655 7.38132 1.79488 7.38132 2.19989C7.38132 2.60489 7.71178 2.93322 8.11942 2.93322ZM11.8099 2.19989C11.8099 2.60489 11.4794 2.93322 11.0718 2.93322C10.6642 2.93322 10.3337 2.60489 10.3337 2.19989C10.3337 1.79488 10.6642 1.46655 11.0718 1.46655C11.4794 1.46655 11.8099 1.79488 11.8099 2.19989ZM3.69085 4.39989C4.09849 4.39989 4.42894 4.07156 4.42894 3.66655C4.42894 3.26154 4.09849 2.93322 3.69085 2.93322C3.28321 2.93322 2.95275 3.26154 2.95275 3.66655C2.95275 4.07156 3.28321 4.39989 3.69085 4.39989ZM7.38132 3.66655C7.38132 4.07156 7.05087 4.39989 6.64323 4.39989C6.23559 4.39989 5.90513 4.07156 5.90513 3.66655C5.90513 3.26154 6.23559 2.93322 6.64323 2.93322C7.05087 2.93322 7.38132 3.26154 7.38132 3.66655ZM9.59561 4.39989C10.0032 4.39989 10.3337 4.07156 10.3337 3.66655C10.3337 3.26154 10.0032 2.93322 9.59561 2.93322C9.18797 2.93322 8.85752 3.26154 8.85752 3.66655C8.85752 4.07156 9.18797 4.39989 9.59561 4.39989ZM11.8099 5.13322C11.8099 5.53823 11.4794 5.86655 11.0718 5.86655C10.6642 5.86655 10.3337 5.53823 10.3337 5.13322C10.3337 4.72821 10.6642 4.39989 11.0718 4.39989C11.4794 4.39989 11.8099 4.72821 11.8099 5.13322ZM8.11942 5.86655C8.52706 5.86655 8.85752 5.53823 8.85752 5.13322C8.85752 4.72821 8.52706 4.39989 8.11942 4.39989C7.71178 4.39989 7.38132 4.72821 7.38132 5.13322C7.38132 5.53823 7.71178 5.86655 8.11942 5.86655ZM5.90513 5.13322C5.90513 5.53823 5.57468 5.86655 5.16704 5.86655C4.7594 5.86655 4.42894 5.53823 4.42894 5.13322C4.42894 4.72821 4.7594 4.39989 5.16704 4.39989C5.57468 4.39989 5.90513 4.72821 5.90513 5.13322ZM2.21466 5.86655C2.6223 5.86655 2.95275 5.53823 2.95275 5.13322C2.95275 4.72821 2.6223 4.39989 2.21466 4.39989C1.80702 4.39989 1.47656 4.72821 1.47656 5.13322C1.47656 5.53823 1.80702 5.86655 2.21466 5.86655ZM4.42894 6.59989C4.42894 7.00489 4.09849 7.33322 3.69085 7.33322C3.28321 7.33322 2.95275 7.00489 2.95275 6.59989C2.95275 6.19488 3.28321 5.86655 3.69085 5.86655C4.09849 5.86655 4.42894 6.19488 4.42894 6.59989ZM6.64323 7.33322C7.05087 7.33322 7.38132 7.00489 7.38132 6.59989C7.38132 6.19488 7.05087 5.86655 6.64323 5.86655C6.23559 5.86655 5.90513 6.19488 5.90513 6.59989C5.90513 7.00489 6.23559 7.33322 6.64323 7.33322ZM10.3337 6.59989C10.3337 7.00489 10.0032 7.33322 9.59561 7.33322C9.18797 7.33322 8.85752 7.00489 8.85752 6.59989C8.85752 6.19488 9.18797 5.86655 9.59561 5.86655C10.0032 5.86655 10.3337 6.19488 10.3337 6.59989ZM11.0718 8.79989C11.4794 8.79989 11.8099 8.47156 11.8099 8.06655C11.8099 7.66154 11.4794 7.33322 11.0718 7.33322C10.6642 7.33322 10.3337 7.66154 10.3337 8.06655C10.3337 8.47156 10.6642 8.79989 11.0718 8.79989ZM8.85752 8.06655C8.85752 8.47156 8.52706 8.79989 8.11942 8.79989C7.71178 8.79989 7.38132 8.47156 7.38132 8.06655C7.38132 7.66154 7.71178 7.33322 8.11942 7.33322C8.52706 7.33322 8.85752 7.66154 8.85752 8.06655ZM5.16704 8.79989C5.57468 8.79989 5.90513 8.47156 5.90513 8.06655C5.90513 7.66154 5.57468 7.33322 5.16704 7.33322C4.7594 7.33322 4.42894 7.66154 4.42894 8.06655C4.42894 8.47156 4.7594 8.79989 5.16704 8.79989ZM2.95275 8.06655C2.95275 8.47156 2.6223 8.79989 2.21466 8.79989C1.80702 8.79989 1.47656 8.47156 1.47656 8.06655C1.47656 7.66154 1.80702 7.33322 2.21466 7.33322C2.6223 7.33322 2.95275 7.66154 2.95275 8.06655Z" fill="url(#paint0_linear)"/>
</g>
</g>
<defs>
<filter id="filter0_d" x="1.47656" y="1.46655" width="10.334" height="8.33325" filterUnits="userSpaceOnUse" color-interpolation-filters="sRGB">
<feFlood flood-opacity="0" result="BackgroundImageFix"/>
<feColorMatrix in="SourceAlpha" type="matrix" values="0 0 0 0 0 0 0 0 0 0 0 0 0 0 0 0 0 0 127 0" result="hardAlpha"/>
<feOffset dy="1"/>
<feColorMatrix type="matrix" values="0 0 0 0 0 0 0 0 0 0 0 0 0 0 0 0 0 0 0.06 0"/>
<feBlend mode="normal" in2="BackgroundImageFix" result="effect1_dropShadow"/>
<feBlend mode="normal" in="SourceGraphic" in2="effect1_dropShadow" result="shape"/>
</filter>
<linearGradient id="paint0_linear" x1="1.47656" y1="1.46655" x2="1.47656" y2="8.79989" gradientUnits="userSpaceOnUse">
<stop stop-color="white"/>
<stop offset="1" stop-color="#F0F0F0"/>
</linearGradient>
</defs>
</svg>
