<svg width="31" height="22" viewBox="0 0 31 22" fill="none" xmlns="http://www.w3.org/2000/svg">
<rect width="31" height="22" rx="2" fill="white"/>
<mask id="mask0" style="mask-type:alpha" maskUnits="userSpaceOnUse" x="0" y="0" width="31" height="22">
<rect width="31" height="22" rx="2" fill="white"/>
</mask>
<g mask="url(#mask0)">
<rect width="31" height="22" fill="#FF2936"/>
<path fill-rule="evenodd" clip-rule="evenodd" d="M0 22H11.8095V0H0V22Z" fill="#128415"/>
<path d="M11.8098 14.6C13.8045 14.6 15.4289 12.9923 15.4289 11C15.4289 9.0077 13.8045 7.39998 11.8098 7.39998C9.81513 7.39998 8.19076 9.0077 8.19076 11C8.19076 12.9923 9.81513 14.6 11.8098 14.6Z" stroke="#FAF94F" stroke-width="1.33333"/>
<path fill-rule="evenodd" clip-rule="evenodd" d="M10.334 9.13338C10.334 8.94929 10.4832 8.80005 10.6673 8.80005H12.953C13.1371 8.80005 13.2864 8.94929 13.2864 9.13338V11.8667C13.2864 12.6031 12.6894 13.2 11.953 13.2H11.6673C10.9309 13.2 10.334 12.6031 10.334 11.8667V9.13338Z" fill="white"/>
<path fill-rule="evenodd" clip-rule="evenodd" d="M11.8104 11.7334C12.218 11.7334 12.5485 10.6718 12.5485 10.2668C12.5485 9.86177 12.218 9.53345 11.8104 9.53345C11.4027 9.53345 11.0723 9.86177 11.0723 10.2668C11.0723 10.6718 11.4027 11.7334 11.8104 11.7334Z" fill="#1D50B5"/>
</g>
</svg>
