<svg width="34" height="34" viewBox="0 0 34 34" fill="none" xmlns="http://www.w3.org/2000/svg">
<path d="M32.3333 9.01329L32.3344 9.01747C32.6668 10.2414 32.8398 12.2097 32.924 13.9461C32.9654 14.7988 32.9843 15.5701 32.993 16.1283C32.9973 16.4071 32.999 16.6322 32.9996 16.7869C33 16.8643 33 16.9241 33 16.9641L32.9999 17.0092L32.9999 17.0202L32.9999 17.0227L32.9999 17.0232V17.0282V17.0288L32.9999 17.0313L32.9998 17.0423L32.9997 17.0872C32.9996 17.1064 32.9995 17.13 32.9993 17.1579C32.9991 17.1883 32.9989 17.2236 32.9985 17.2638C32.9972 17.418 32.9945 17.6421 32.9891 17.9198C32.9783 18.4757 32.9567 19.2441 32.9136 20.094C32.826 21.8215 32.6536 23.7867 32.3329 25.0173C32.0315 26.1422 31.1511 27.0266 30.0438 27.3281C29.4809 27.477 28.407 27.605 27.0297 27.7047C25.678 27.8026 24.1142 27.8682 22.6242 27.9122C21.1358 27.9561 19.729 27.978 18.6938 27.989C18.1763 27.9945 17.7522 27.9973 17.4578 27.9986C17.3105 27.9993 17.1957 27.9997 17.1179 27.9998L17.0295 28L17.0071 28L17.0016 28H17.0003H17L16.9999 29L16.9999 28H16.9996H16.9983L16.9928 28L16.9705 28L16.8824 27.9998C16.8048 27.9996 16.6903 27.9993 16.5434 27.9986C16.2497 27.9972 15.8267 27.9943 15.3105 27.9886C14.2776 27.9772 12.8736 27.9543 11.3873 27.9087C9.89928 27.863 8.33689 27.7948 6.98467 27.6931C5.60458 27.5894 4.52758 27.4561 3.96036 27.3012L3.95894 27.3009C2.84991 26.9998 1.96809 26.1143 1.66664 24.988C1.34653 23.7734 1.17392 21.8092 1.08624 20.0765C1.04314 19.2247 1.02155 18.4538 1.01075 17.8956C1.00536 17.6168 1.00267 17.3916 1.00133 17.2367C1.00066 17.1593 1.00033 17.0995 1.00016 17.0593L1.00002 17.0141L1 17.0031L1 17.0005L1 17.0001V17V17V16.9999L1 16.9995L1 16.997L1.00002 16.986L1.00016 16.941C1.00033 16.9011 1.00066 16.8415 1.00133 16.7644C1.00267 16.6103 1.00536 16.3861 1.01075 16.1084C1.02154 15.5525 1.04313 14.7841 1.08623 13.9341C1.17384 12.2065 1.3463 10.2412 1.66697 9.01075C1.96882 7.88391 2.87922 6.97188 3.95831 6.67129C4.52191 6.52266 5.59469 6.39481 6.96993 6.29528C8.32156 6.19745 9.88539 6.13176 11.3754 6.08783C12.8638 6.04394 14.2706 6.02197 15.3058 6.01098C15.8233 6.00548 16.2474 6.00274 16.5418 6.00137C16.6891 6.00068 16.8039 6.00034 16.8817 6.00017L16.9701 6.00002L16.9925 6L16.998 6L16.9993 6H16.9996L16.9997 5L16.9997 6H17L17.0013 6L17.0068 6L17.0292 6.00002L17.1176 6.00018C17.1954 6.00035 17.3101 6.00071 17.4573 6.00142C17.7517 6.00285 18.1758 6.0057 18.6931 6.01141C19.7282 6.02283 21.1348 6.04567 22.6229 6.09129C24.1127 6.13696 25.6759 6.20522 27.0268 6.30687C28.4064 6.41068 29.4782 6.54391 30.0369 6.69807L30.0409 6.69914C31.1503 7.00038 32.0325 7.88636 32.3333 9.01329Z" fill="white" stroke="#414D58" stroke-width="2"/>
<path d="M13.6113 22.0001L22.4613 16.9029L13.6113 11.8057V22.0001Z" fill="#414D58"/>
</svg>
